<?xml version="1.0" encoding="UTF-8" standalone="no"?>
<!-- Created with Inkscape (http://www.inkscape.org/) -->

<svg
   version="1.1"
   id="svg1"
   width="843.05505"
   height="1047.9409"
   viewBox="0 0 843.05505 1047.9409"
   sodipodi:docname="20c.svg"
   inkscape:version="1.3 (0e150ed6c4, 2023-07-21)"
   xmlns:inkscape="http://www.inkscape.org/namespaces/inkscape"
   xmlns:sodipodi="http://sodipodi.sourceforge.net/DTD/sodipodi-0.dtd"
   xmlns="http://www.w3.org/2000/svg"
   xmlns:svg="http://www.w3.org/2000/svg">
  <defs
     id="defs1" />
  <sodipodi:namedview
     id="namedview1"
     pagecolor="#ffffff"
     bordercolor="#000000"
     borderopacity="0.25"
     inkscape:showpageshadow="2"
     inkscape:pageopacity="0.0"
     inkscape:pagecheckerboard="0"
     inkscape:deskcolor="#d1d1d1"
     showgrid="false"
     inkscape:zoom="0.53103584"
     inkscape:cx="387.92108"
     inkscape:cy="349.31729"
     inkscape:window-width="1920"
     inkscape:window-height="1011"
     inkscape:window-x="0"
     inkscape:window-y="0"
     inkscape:window-maximized="1"
     inkscape:current-layer="layer1" />
  <g
     inkscape:groupmode="layer"
     id="layer1"
     inkscape:label="Layer 1"
     transform="translate(-10.666666,-17.333333)">
    <path
       id="path1-5"
       style="fill:#552200"
       d="m 94.666666,17.333366 v 30 30 h -42 -42 v 29.999994 30 h 42 42 V 193.86071 250.39 l -4.630859,9.80469 c -7.194255,15.23225 -9.129216,24.74541 -8.363282,41.12109 0.709989,15.17956 5.350005,32.71965 10.330078,39.05079 2.509342,3.1901 2.664063,5.41576 2.664063,38.17773 v 34.78906 h 29.333984 29.33203 v -26.59375 -26.5957 l 8.12891,4.5957 c 4.47044,2.52684 8.58202,4.59375 9.13672,4.59375 1.39752,0 11.96855,13.80561 17.35547,22.66602 2.45215,4.03332 6.70747,12.43463 9.45507,18.66797 4.28669,9.72495 5.89,11.93333 11.29688,15.56836 3.4656,2.3299 8.36231,6.23122 10.88281,8.66797 4.46306,4.31475 19.76867,27.99134 25.76367,39.85546 4.07208,8.05866 15.89982,23.65277 22.38282,29.50977 5.27421,4.76493 27.78283,16.62569 32.93164,17.35352 2.42241,0.34243 2.69269,-0.46172 2.94726,-8.79102 0.15413,-5.04302 0.64531,-9.53398 1.0918,-9.98047 0.44649,-0.4465 3.45541,2.17782 6.68555,5.83399 4.83838,5.47652 6.11026,6.29611 7.2207,4.64843 0.74135,-1.1 1.35599,-2.92974 1.36719,-4.0664 0.026,-2.62964 2.63568,-5.26758 5.21093,-5.26758 1.09416,0 6.72616,3.11121 12.51563,6.91211 5.78946,3.80089 13.62379,7.95196 17.41015,9.22656 l 6.88477,2.31836 1.69922,8.4375 c 1.71619,8.51945 7.28111,19.29344 10.9668,21.23047 1.09999,0.5781 3.63936,1.39547 5.64257,1.8164 5.32143,1.11821 12.69484,8.17125 16.66211,15.93946 5.35537,10.48623 5.76965,24.14707 1.08789,35.84961 -13.17407,32.93002 -38.99764,65.42849 -64.22461,80.82617 -25.6713,15.66889 -41.85198,27.03506 -47.11328,33.0957 -3.03073,3.4912 -7.81958,11.14896 -10.64257,17.01563 -10.19963,21.19659 -14.85117,43.16551 -14.82227,70 0.023,21.35736 -1.58083,32.81996 -5.91797,42.33203 -1.75546,3.84999 -2.89376,7 -2.53125,7 2.18029,0 9.64703,-4.76653 12.18555,-7.7793 l 2.99414,-3.55273 0.13867,23.33203 c 0.0767,12.83332 0.55394,24.81613 1.05859,26.62695 0.90426,3.24474 0.94399,3.22571 2.80274,-1.26172 2.34296,-5.6564 8.98394,-13.36523 11.51367,-13.36523 2.25031,0 3.28878,2.34239 7.75781,17.49609 3.56785,12.09793 6.53053,16.67364 7.75782,11.98047 0.74842,-2.86201 8.32638,-7.3463 10.80664,-6.39453 2.52474,0.96883 8.57402,13.08372 10.80078,21.63281 6.82221,26.19227 -3.14958,50.0133 -25.14063,60.0625 -7.28064,3.32703 -9.696,3.66253 -33.33203,4.63672 -35.16009,1.44917 -54.99814,6.06268 -68.67578,15.97066 -4.87468,3.5312 -9.57476,12.2944 -7.63477,14.2344 0.42497,0.425 4.13858,-0.5158 8.25196,-2.0899 4.11337,-1.5741 7.85475,-2.8613 8.31445,-2.8613 0.45969,0 -2.20751,3.15 -5.92578,7 -8.46403,8.7639 -11.14844,12.767 -11.14844,16.6289 0,1.6701 0.27849,3.0371 0.61914,3.0371 0.34066,0 5.06836,-2.7 10.50391,-6 5.43554,-3.3 10.48279,-6 11.2168,-6 0.73399,0 2.08122,-0.9 2.99414,-2 0.91292,-1.1 2.83204,-2 4.26562,-2 2.16417,0 1.60104,1.1879 -3.32422,7 -7.45365,8.7958 -10.27539,14.2988 -10.27539,20.045 0,6.4658 1.10596,6.7871 6.65625,1.9316 9.68373,-8.4715 16.54937,-12.9766 19.77735,-12.9766 0.67774,0 0.0913,2.3094 -1.30469,5.1309 -1.39597,2.8215 -2.90403,8.2064 -3.34961,11.9687 l -0.81055,6.8418 7.37305,-3.9941 c 17.65166,-9.5605 34.97943,-13.2707 62.10937,-13.3027 24.31883,-0.029 41.22287,-1.7557 51.35743,-5.2442 6.68744,-2.3019 10.16141,-4.9599 24.19335,-18.5234 14.63027,-14.1418 17.96257,-16.6468 31.14649,-23.3906 19.23885,-9.84092 19.33223,-10.07629 14.98437,-37.96485 -1.67382,-10.73653 -3.8812,-25.82149 -4.90625,-33.52149 -1.02505,-7.69999 -2.4608,-16.06003 -3.18945,-18.57812 -1.70998,-5.90935 -0.79952,-6.76374 1.81641,-1.70508 2.46822,4.77303 8.64113,12.2832 10.0957,12.2832 0.57484,0 1.39033,-2.85065 1.8125,-6.33398 0.42218,-3.48333 1.67703,-10.23334 2.78906,-15 1.49133,-6.39247 2.03582,-16.80062 2.07032,-39.66602 0.0547,-36.22534 -0.0488,-36.02994 12.1621,-22.875 l 7.54102,8.12305 0.95703,-5.12305 c 1.50739,-8.07106 8.98401,-22.91419 16.8457,-33.4414 3.9637,-5.3076 7.65144,-9.65897 8.19532,-9.66797 0.54387,-0.009 4.25102,6.48517 8.23633,14.43164 8.5919,17.13176 22.72645,38.59002 33.96093,51.55273 16.13718,18.61961 42.55811,38.80419 67.53125,51.5918 l 11.1543,5.71094 8.70117,-4.29102 c 19.96426,-9.84482 41.35524,-24.64352 55.80274,-38.60547 l 7.70703,-7.44922 4.73828,2.52149 c 2.60599,1.38659 8.23197,5.67149 12.50195,9.52148 8.10701,7.30963 11.88973,9.0915 9.39063,4.42188 -0.75914,-1.41845 -1.37891,-5.03163 -1.37891,-8.0293 v -5.45117 l 8.92578,7.36328 c 5.27718,4.35287 10.21885,7.36133 12.08985,7.36133 h 3.16601 l -2.75781,-3.8711 c -3.06464,-4.30388 -3.66391,-9.47684 -1.0918,-9.43164 3.7077,0.0651 13.19518,5.428 18.89258,10.67969 11.25987,10.37898 16.4679,27.13031 14.97461,48.16797 -0.50608,7.12962 -2.13523,15.70084 -4.00391,21.07422 -3.92632,11.29016 -15.20093,28.74987 -26.06836,40.36719 -9.08203,9.70869 -13.06776,11.59119 -30.41601,14.36719 -6.79462,1.0873 -11.18044,2.668 -14.91992,5.3769 -7.15599,5.1838 -16.09681,17.3115 -18.92774,25.6738 -3.61461,10.6773 -2.05052,11.3734 8.22266,3.6543 6.37435,-4.7896 13.85269,-7.8972 15.36523,-6.3847 0.32666,0.3267 -0.12246,3.6969 -0.99804,7.4902 -2.21069,9.5772 -0.54304,10.9815 7.4707,6.2852 3.35547,-1.9665 8.41831,-4.3935 11.25,-5.3926 l 5.14844,-1.8164 -1.33594,5.2617 c -0.7345,2.8937 -0.96189,5.6358 -0.50391,6.0938 1.1511,1.1511 18.41192,-5.7645 24.21289,-9.7012 2.61545,-1.7749 5.11115,-3.2266 5.54492,-3.2266 0.43379,0 0.41997,2.6923 -0.0312,5.9844 -1.04612,7.6323 0.7847,12.6816 4.59961,12.6816 1.61716,0 5.42526,-2.5502 8.70313,-5.8281 5.38065,-5.3807 6.95587,-6.1003 20.53125,-9.3965 8.08672,-1.9635 17.23518,-4.6743 20.33008,-6.0234 14.55405,-6.3446 22.40869,-16.3135 24.23242,-30.752 3.93775,-31.1752 20.62816,-64.80665 41.44726,-83.51361 6.56312,-5.89727 10.34869,-10.39842 11.13282,-13.23828 3.27469,-11.86 -8.62181,-40.30485 -31.74805,-75.91406 -21.41216,-32.96993 -30.14291,-54.35379 -22.95898,-56.23242 2.51824,-0.65854 1.76984,-1.74098 -6.54102,-9.43555 -5.16289,-4.78006 -10.23093,-10.32114 -11.26172,-12.31445 -1.03079,-1.99332 -2.81469,-9.47157 -3.96484,-16.61915 -5.90801,-36.71483 -11.51308,-54.71941 -19.59961,-62.95898 -4.42601,-4.50977 -5.12152,-5.77344 -3.17383,-5.77344 1.37159,0 5.10551,1.53013 8.29688,3.40039 3.19135,1.87026 6.45207,2.99855 7.24609,2.50782 1.38502,-0.85599 0.62377,-21.84381 -1,-27.57422 -0.42815,-1.51099 0.0764,-2.33399 1.42969,-2.33399 3.43725,0 2.50637,-7.51629 -1.95703,-15.8125 -2.22517,-4.13597 -7.47453,-11.78595 -11.66602,-16.99804 l -7.62109,-9.47657 0.89257,-18.52343 c 0.49041,-10.18789 1.56302,-56.32349 2.38477,-102.52344 0.82176,-46.19996 2.0331,-93.58628 2.69141,-105.30469 0.65833,-11.71841 0.96238,-21.54152 0.67578,-21.82812 -1.59225,-1.59225 -34.5476,-5.48906 -64.35352,-7.60938 -10.22484,-0.72737 -12.11482,-1.19477 -10.87109,-2.69336 1.15229,-1.38843 0.84895,-2.6486 -1.29102,-5.36914 -3.25893,-4.14306 -3.66724,-8.52734 -0.79492,-8.52734 3.31616,0 2.32081,-2.57552 -4.60937,-11.92383 -14.3129,-19.30702 -33.69803,-33.45083 -55.73829,-40.66992 -11.78971,-3.86162 -13.00007,-10.98577 -2.48242,-14.60157 l 4.90235,-1.6875 -2.84375,-3.61523 c -1.56407,-1.98839 -7.73053,-6.06395 -13.70313,-9.05859 -17.31335,-8.68089 -24.34724,-13.87773 -27.44336,-20.27344 -4.02582,-8.31625 -3.67547,-10.16992 1.91797,-10.16992 2.56666,0 4.66602,-0.65008 4.66602,-1.44336 0,-1.55443 -26.47417,-31.69284 -41.89063,-47.68946 -5.23584,-5.43289 -11.88448,-10.87093 -14.92187,-12.20507 l -5.47657,-2.40625 -0.65625,-9.15039 c -1.22354,-17.10064 -8.57096,-27.08997 -19.93554,-27.10157 -2.68467,-0.003 -8.68532,1.18734 -13.33399,2.64453 -4.64865,1.45721 -8.85452,2.65897 -9.34765,2.66797 -0.49313,0.009 -1.60042,-2.11139 -2.45899,-4.71289 -2.96046,-8.97026 -17.14433,-14.5465 -28.92969,-11.37304 -5.17197,1.39267 -15.04882,10.21304 -15.04882,13.43945 0,0.75773 -4.03314,1.33008 -9.37696,1.33008 -10.97855,0 -15.00092,1.47794 -28.18359,10.35742 -14.33697,9.65699 -17.33293,10.91604 -29.44727,12.37891 -16.33252,1.97224 -30.80888,5.04832 -44.9375,9.54882 -18.51784,5.89866 -19.27951,6.5602 -20.80664,18.07227 -0.81718,6.16021 -0.63292,6.62914 5.0918,13.01562 3.26643,3.64402 6.99654,8.72632 8.28906,11.29297 4.37909,8.696 7.11274,10.66602 14.79492,10.66602 6.79493,0 7.00446,0.1174 8.96485,5 2.00041,4.98225 1.99563,5.0026 -1.52344,5.70312 -2.59658,0.51689 -3.50358,1.48896 -3.42578,3.66797 0.0822,2.30077 -0.64006,2.96289 -3.22852,2.96289 -5.93704,0 -8.2141,3.48396 -8.1914,12.53907 0.0291,11.58418 1.13012,12.80368 8.05078,8.91406 4.49934,-2.52878 6.78581,-2.97762 12.00586,-2.35938 8.44328,0.99998 13.83942,3.83129 21.69726,11.38282 13.66935,13.13647 14.67524,22.39474 4.86328,44.76757 -3.10277,7.07482 -5.31077,13.19314 -4.9082,13.59571 0.40257,0.40257 4.36668,-1.8329 8.81055,-4.9668 4.44386,-3.13391 8.36622,-5.41307 8.71484,-5.06445 0.34861,0.34861 -3.02569,6.15886 -7.49804,12.91211 -5.57168,8.41319 -8.93886,12.27929 -10.69727,12.27929 -4.52973,0 -8.07343,2.70924 -24.48828,18.72852 -16.94562,16.53725 -22.53384,19.76239 -30.85352,17.80664 -6.89088,-1.61987 -38.2894,-17.50804 -50.38281,-25.49414 -19.96438,-13.18386 -31.35562,-23.2432 -60.81445,-53.70508 -17.53416,-18.13117 -30.38647,-30.31003 -34.01758,-32.23633 l -5.83594,-3.0957 v -59.00195 -59.00196 h 42 42 v -30 -29.999994 h -42 -42 v -30 -30 H 124.00065 Z M 352.63737,209.47789 c 6.20427,-0.0599 18.92595,1.52792 23.12695,3.28321 2.64243,1.10407 5.93427,3.02829 7.31446,4.27734 2.44294,2.21085 2.42725,2.2951 -0.61719,3.15039 -1.72002,0.48321 -9.75801,0.93862 -17.86133,1.01172 -9.83325,0.0887 -15.2969,0.68647 -16.42773,1.79883 -1.36655,1.34422 -1.50994,0.92267 -0.74219,-2.1836 0.52356,-2.11826 1.08974,-5.11957 1.25781,-6.66796 0.16808,-1.5484 0.38101,-3.35042 0.47461,-4.00586 0.063,-0.44102 1.40652,-0.6441 3.47461,-0.66407 z" />
    <path
       style="fill:#d38d5f"
       d="m 117.33333,360.87334 c 0,-0.98631 -2.26047,-5.33631 -5.02327,-9.66666 -2.76279,-4.33036 -5.74993,-9.52339 -6.63808,-11.54005 -2.23086,-5.0655 -7.005316,-5.06259 -7.005316,0.004 0,4.03632 7.353026,15.2609 13.067426,19.94779 4.18506,3.43253 5.59924,3.74942 5.59924,1.25466 z"
       id="path109" />
    <path
       style="fill:#d38d5f"
       d="m 115.46876,332.84509 c -7.10583,-13.03582 -9.21528,-15.26864 -12.13543,-12.84513 -4.457773,3.69962 -0.0922,15.48155 7.12873,19.23897 1.94586,1.01255 5.03794,3.45052 6.87127,5.41772 5.71226,6.12936 4.81429,0.44096 -1.86457,-11.81156 z"
       id="path111" />
    <path
       style="fill:#d38d5f"
       d="m 124,320.63497 c 0,-0.38407 -3.75,-5.16313 -8.33334,-10.62011 -5.73997,-6.8341 -9.26694,-9.93628 -11.33333,-9.96835 -3.92203,-0.0609 -4.08698,5.3486 -0.32424,10.63289 C 107.58216,315.69731 124,323.87347 124,320.63497 Z"
       id="path113" />
    <path
       style="fill:#d38d5f"
       d="m 113.7336,286.31211 c -4.41234,-4.59499 -8.44787,-9.69499 -8.96786,-11.33334 -0.52,-1.63834 -1.48618,-2.97881 -2.14708,-2.97881 -0.6609,0 -0.85915,0.89249 -0.44057,1.98332 0.41859,1.09082 0.13318,3.7845 -0.63425,5.98595 -1.21697,3.491 -0.95004,4.53183 2.08833,8.14272 4.05266,4.81632 7.27771,6.35298 13.57917,6.47016 l 4.54468,0.0845 z"
       id="path114" />
    <path
       style="fill:#d38d5f"
       d="m 135.85644,275.42392 c 2.82523,-1.78348 7.4633,-3.43349 10.30683,-3.66667 4.96209,-0.4069 5.18718,-0.63304 5.59566,-5.62158 1.01153,-12.3532 -9.76373,-9.05559 -20.84178,6.37834 -5.13251,7.1506 -3.39755,8.17273 4.93929,2.90991 z"
       id="path115" />
    <path
       style="fill:#d38d5f"
       d="m 202.49468,1011.5054 c 5.15826,-2.472 10.60715,-4.8159 12.10865,-5.2085 2.00896,-0.5254 2.73,-1.8034 2.73,-4.8387 0,-4.88164 -0.39575,-4.93713 -9.88584,-1.3864 -8.47043,3.1692 -15.44749,9.0994 -15.44749,13.1298 0,1.5391 0.2511,2.7984 0.55801,2.7984 0.30691,0 4.77841,-2.0226 9.93667,-4.4946 z"
       id="path57" />
    <path
       style="fill:#d38d5f"
       d="m 206.48622,1027.3882 c 3.39924,-1.8031 9.71461,-4.4873 14.03416,-5.9648 4.31954,-1.4775 8.08633,-2.919 8.37064,-3.2033 1.27401,-1.274 -2.39932,-7.5745 -4.52469,-7.7608 -8.37691,-0.7341 -16.37482,2.9419 -23.45729,10.7813 -8.36934,9.2639 -5.7469,12.1545 5.57718,6.1476 z"
       id="path56" />
    <path
       style="fill:#d38d5f"
       d="m 679.77319,1023.2347 c 0.24193,-0.1852 -0.57708,-1.8887 -1.82002,-3.7857 -3.37847,-5.1562 -8.01928,-4.5144 -14.17912,1.961 -4.82649,5.0737 -13.1074,19.3856 -13.1074,22.6535 0,0.8101 6.45,-3.4692 14.33333,-9.5096 7.88334,-6.0404 14.53128,-11.1341 14.77321,-11.3192 z"
       id="path46" />
    <path
       style="fill:#d38d5f"
       d="m 217.20629,1044.7728 c 3.00223,-2.5083 7.26399,-4.9571 9.47058,-5.4417 4.13348,-0.9079 7.34335,-4.9512 6.23125,-7.8493 -0.3468,-0.9038 -3.18439,-2.4084 -6.30576,-3.3435 l -5.67521,-1.7004 -6.50215,6.5022 c -4.64616,4.6461 -6.73123,7.9138 -7.3047,11.4477 -0.7057,4.3487 -0.47492,4.9455 1.91242,4.9455 1.49323,0 5.17134,-2.0522 8.17357,-4.5605 z"
       id="path6" />
    <path
       style="fill:#d38d5f"
       d="m 708.29933,1046.6667 c 9.82082,-5.7627 12.3493,-8.7583 10.80014,-12.7953 -0.92699,-2.4157 -6.21896,-2.3952 -10.93257,0.042 -5.73273,2.9645 -13.50025,12.2784 -13.50025,16.1879 0,4.2874 0.82751,4.0789 13.63268,-3.4349 z"
       id="path5" />
    <path
       style="fill:#d38d5f"
       d="m 697.03187,1030 c -0.26955,-2.9522 -1.12674,-4.1084 -3.27222,-4.4139 -5.75136,-0.8188 -21.75967,17.3485 -21.75967,24.6944 0,2.7718 1.31393,2.0895 12.69855,-6.5944 11.52577,-8.7915 12.66482,-10.0555 12.33334,-13.6861 z"
       id="path4" />
    <path
       style="fill:#d38d5f"
       d="m 236.76371,1053.2393 c 2.41377,-2.3395 6.90341,-4.7776 10.47615,-5.689 3.43868,-0.8772 6.31353,-2.1849 6.38856,-2.906 0.075,-0.721 -2.72402,-3.0865 -6.22013,-5.2566 l -6.35655,-3.9456 -5.85921,6.2013 c -4.66372,4.9361 -5.8592,7.1694 -5.8592,10.9457 0,5.8679 1.87752,6.0322 7.43038,0.6502 z"
       id="path3" />
    <path
       style="fill:#d38d5f"
       d="m 734.92033,1051.1105 c 2.7062,-2.3612 6.79865,-5.2643 9.09435,-6.4514 3.40499,-1.7608 3.88089,-2.5117 2.58306,-4.0755 -2.35081,-2.8325 -9.41836,-2.2417 -13.52916,1.131 -3.62431,2.9736 -7.73526,10.984 -7.73526,15.0725 0,2.493 0.69518,2.0814 9.58701,-5.6766 z"
       id="path2" />
    <path
       style="fill:#ff0000"
       d="m 389.43183,237.91085 c 2.62281,-2.37361 3.20104,-5.37683 1.75884,-9.13513 -0.69379,-1.80801 -4.02436,-2.10905 -23.33333,-2.10905 -14.12712,0 -22.52401,0.49706 -22.52401,1.33333 0,2.05831 -3.9906,1.57595 -4.81886,-0.58248 -0.88255,-2.29987 -4.51448,-1.22151 -4.51448,1.34041 0,1.00388 2.51672,2.46248 5.66667,3.2842 3.11667,0.81303 11.06667,3.24835 17.66666,5.41182 13.66522,4.47944 25.45588,4.65842 30.09851,0.4569 z"
       id="path116" />
    <path
       style="fill:#ffeeaa"
       d="m 344.01467,221.66667 c 0.008,-1.28334 0.38657,-4.58334 0.84112,-7.33334 0.80811,-4.88908 0.73384,-5 -3.34801,-5 -4.85262,0 -5.17038,1.45698 -2.02968,9.30635 2.22428,5.55903 4.51105,7.08485 4.53657,3.02699 z"
       id="path117" />
    <path
       style="fill:#ffff00"
       d="m 148,341.33333 v -66.66666 l -3.66667,0.0416 c -2.01667,0.0229 -6.06667,1.51981 -9,3.3265 -2.93333,1.80669 -7.05234,3.28797 -9.15335,3.29172 l -3.82001,0.007 2.31154,-3.66666 c 1.27134,-2.01667 3.04989,-4.26667 3.95232,-5 0.90244,-0.73334 1.63835,-1.87643 1.63536,-2.54022 -0.01,-2.16419 11.31301,-12.56398 14.56862,-13.38109 L 148,255.94919 v -61.9556 -61.9556 l 41.66666,-0.35233 41.66667,-0.35233 L 231.69674,107 232.06015,82.666667 H 190.03007 148 v -30 -30 H 124 99.999998 v 30 30 H 58.666665 17.333333 V 107.33333 132 h 41.333332 41.333333 v 62.64178 62.64178 l 8.933972,12.35822 c 4.91368,6.79702 10.91368,14.60995 13.33333,17.36206 2.41965,2.75211 4.39936,5.83213 4.39936,6.84449 0,2.01803 -3.96069,3.43846 -9.66666,3.4668 -4.58728,0.0228 -4.62466,1.33824 -0.15493,5.45245 6.27499,5.77589 13.82159,16.07196 13.82159,18.85726 0,2.5036 -0.54573,2.64631 -6.89729,1.80375 -3.79352,-0.50323 -8.06213,-1.53836 -9.48581,-2.30029 -2.04746,-1.09577 -1.75805,-0.17402 1.3846,4.40985 5.08633,7.41893 10.9985,19.11096 10.9985,21.75086 0,3.94417 -9.34024,1.64634 -12.89098,-3.17137 -0.85671,-1.1624 -1.86479,-1.80631 -2.24019,-1.43091 -0.37539,0.37539 1.37555,3.94664 3.89099,7.93612 2.51543,3.98947 4.57352,8.90017 4.57352,10.91267 0,3.43252 -0.23223,3.57814 -3.75039,2.3517 -4.16769,-1.45286 -10.38634,-6.79164 -13.84634,-11.88722 -2.16191,-3.18387 -2.26654,-2.0031 -2.33334,26.33333 L 99.999998,408 H 124 148 Z"
       id="path89" />
    <path
       style="fill:#0000ff"
       d="m 598.53095,904.0685 c 28.32675,-14.2993 60.80677,-43.093 78.28703,-69.40183 26.33306,-39.63284 42.51999,-83.92452 51.72684,-141.53822 7.76099,-48.56587 10.43793,-96.89064 12.80332,-231.12845 0.73655,-41.8 1.71513,-79.98399 2.17462,-84.8533 0.74744,-7.92074 0.57079,-8.9334 -1.677,-9.61366 -4.77814,-1.44602 -46.6274,-4.81369 -76.51244,-6.15707 -38.32206,-1.72263 -112.39042,-1.74252 -149.33333,-0.0401 -29.18256,1.3448 -71.95044,4.80892 -76.52454,6.19836 -2.32908,0.70748 -2.45877,1.76175 -1.67498,13.61632 0.46726,7.0672 1.45143,47.94946 2.18703,90.84946 2.04121,119.04195 4.48488,165.04225 11.26206,212 7.06542,48.95491 17.26153,83.71515 35.0037,119.33333 19.28887,38.72327 42.00909,65.63884 73.08006,86.5745 8.6854,5.85223 29.54359,17.99794 31.03802,18.07342 0.20425,0.0103 3.87607,-1.75042 8.15961,-3.91275 z"
       id="path58" />
    <path
       style="display:inline;fill:#ffff00"
       d="m 561.33332,695.33333 v -138 h -42 -42 v -29.981 -29.98101 l 41.66667,-0.35232 41.66666,-0.35233 0.35837,-30.33334 L 561.38339,436 h 29.28326 29.28327 l 0.35837,30.33333 0.35836,30.33334 26.66667,0.22413 c 14.66666,0.12327 33.41666,0.27327 41.66666,0.33333 l 15,0.1092 v 30 30 h -42 -41.99999 v 138 138 h -29.33334 -29.33333 z"
       id="path59" />
    <path
       style="fill:#000000"
       d="m 223.11237,1058.4338 c 0.44558,-3.7623 1.9523,-9.149 3.34827,-11.9705 1.39597,-2.8215 1.98361,-5.13 1.30586,-5.13 -3.22798,0 -10.09355,4.5046 -19.77729,12.9761 -5.5503,4.8555 -6.65588,4.5347 -6.65588,-1.9312 0,-5.7462 2.82061,-11.2491 10.27427,-20.0449 4.92526,-5.8121 5.48959,-7 3.32542,-7 -1.43358,0 -3.35344,0.9 -4.26636,2 -0.91292,1.1 -2.2604,2 -2.9944,2 -0.73401,0 -5.78182,2.7 -11.21737,6 -5.43555,3.3 -10.16153,6 -10.50219,6 -0.34065,0 -0.61937,-1.3665 -0.61937,-3.0366 0,-3.8619 2.68437,-7.8661 11.14841,-16.63 3.71827,-3.85 6.38438,-7 5.92469,-7 -0.4597,0 -4.2013,1.2879 -8.31468,2.862 -4.11338,1.5741 -7.82656,2.5143 -8.25153,2.0893 -1.94,-1.94 2.76035,-10.703 7.63503,-14.2342 13.67765,-9.90803 33.51486,-14.52117 68.67499,-15.97034 23.63605,-0.97419 26.05268,-1.31039 33.33333,-4.63742 21.99107,-10.04921 31.96143,-33.87047 25.13921,-60.06276 -2.22676,-8.5491 -8.27433,-20.66326 -10.79908,-21.63209 -2.48026,-0.95177 -10.0595,3.53247 -10.80793,6.39448 -1.22729,4.69317 -4.19008,0.11797 -7.75793,-11.97997 C 286.7888,882.34198 285.75034,880 283.50003,880 c -2.52973,0 -9.17011,7.70839 -11.51307,13.3648 -1.85875,4.48743 -1.89935,4.50568 -2.80361,1.26094 C 268.6787,892.81492 268.20302,880.83333 268.12628,868 l -0.13953,-23.33333 -2.99338,3.5526 C 262.45485,851.23204 254.98693,856 252.80664,856 c -0.36251,0 0.77716,-3.15 2.53262,-7 4.33714,-9.51208 5.93928,-20.97595 5.91631,-42.33333 -0.0289,-26.83451 4.62314,-48.80339 14.82278,-70 2.823,-5.86667 7.61241,-13.52311 10.64315,-17.01431 5.2613,-6.06065 21.44144,-17.42688 47.11277,-33.09579 25.22699,-15.39769 51.05057,-47.89664 64.22466,-80.8267 4.68176,-11.70255 4.26703,-25.36366 -1.08834,-35.8499 -3.96728,-7.76822 -11.34029,-14.82191 -16.66172,-15.94012 -2.00322,-0.42094 -4.54221,-1.23835 -5.64221,-1.81645 -3.68569,-1.93703 -9.2506,-12.7091 -10.96679,-21.22856 l -1.69988,-8.43849 -6.88431,-2.31745 c -3.78637,-1.2746 -11.62115,-5.42728 -17.41062,-9.22818 C 331.91559,507.10982 326.28353,504 325.18937,504 c -2.57526,0 -5.18382,2.63703 -5.20979,5.26667 -0.0112,1.13666 -0.62697,2.96666 -1.36832,4.06666 -1.11044,1.64768 -2.38249,0.82894 -7.22088,-4.64759 -3.23014,-3.65617 -6.2383,-6.28228 -6.68479,-5.83578 -0.44649,0.44649 -0.9379,4.9379 -1.09203,9.98092 -0.25457,8.32931 -0.52448,9.13459 -2.9469,8.79216 -5.14881,-0.72783 -27.65761,-12.58962 -32.93183,-17.35455 -6.483,-5.85701 -18.31107,-21.45095 -22.38315,-29.50961 -5.99501,-11.86414 -21.29993,-35.54125 -25.76299,-39.85601 -2.5205,-2.43675 -7.41823,-6.33675 -10.88383,-8.66666 -5.40688,-3.63503 -7.01006,-5.84458 -11.29675,-15.56954 -2.74761,-6.23334 -7.00198,-14.63334 -9.45414,-18.66667 -5.38692,-8.86042 -15.95839,-22.66667 -17.35591,-22.66667 -0.5547,0 -4.66619,-2.06742 -9.13664,-4.59426 l -8.12809,-4.59427 v 26.59427 26.59426 H 124 94.666664 v -34.78969 c 0,-32.762 -0.155307,-34.98714 -2.664651,-38.17725 -4.980078,-6.33114 -9.619537,-23.87015 -10.329526,-39.04972 -0.765935,-16.3757 1.168945,-25.88947 8.363207,-41.12173 l 4.63097,-9.80505 V 193.86161 137.33333 H 52.666665 10.666666 v -30 -29.999997 h 41.999999 41.999999 v -30 -30 H 124 153.33333 v 30 30 h 42 42 v 29.999997 30 h -42 -42 v 59.00229 59.00229 l 5.8359,3.09594 c 3.63111,1.9263 16.48251,14.10505 34.01668,32.23624 29.45886,30.46191 40.84968,40.52116 60.81408,53.70503 12.09342,7.98611 43.4924,23.87387 50.38329,25.49374 8.31969,1.95575 13.909,-1.27004 30.85464,-17.80731 16.41487,-16.01929 19.95668,-18.72822 24.48641,-18.72822 1.75841,0 5.12622,-3.86545 10.6979,-12.27865 4.47236,-6.75325 7.84634,-12.56388 7.49773,-12.91249 -0.34862,-0.34862 -4.26975,1.93025 -8.71362,5.06416 -4.44387,3.1339 -8.40915,5.36863 -8.81172,4.96606 -0.40257,-0.40257 1.80668,-6.52043 4.90946,-13.59525 9.81197,-22.37286 8.8063,-31.63061 -4.86306,-44.7671 -7.85785,-7.55153 -13.2552,-10.38297 -21.69849,-11.38295 -5.22005,-0.61824 -7.50534,-0.16902 -12.00469,2.35976 -6.92067,3.88963 -8.02166,2.67065 -8.05076,-8.91355 -0.0227,-9.05511 2.25338,-12.53999 8.19043,-12.53999 2.58846,0 3.31054,-0.66288 3.22835,-2.96365 -0.0778,-2.17901 0.82914,-3.14978 3.42572,-3.66667 3.51907,-0.70052 3.52447,-0.72075 1.52406,-5.70301 -1.96039,-4.8826 -2.1709,-5 -8.96583,-5 -7.68219,0 -10.41548,-1.97066 -14.79457,-10.66667 -1.29252,-2.56666 -5.02256,-7.64813 -8.28899,-11.29215 -5.72473,-6.38649 -5.90838,-6.85602 -5.0912,-13.01624 1.52713,-11.51208 2.28837,-12.17328 20.80623,-18.07194 14.12863,-4.50051 28.60475,-7.57657 44.93729,-9.54882 12.11435,-1.46287 15.11108,-2.72267 29.44806,-12.37967 13.18268,-8.87949 17.20531,-10.35784 28.18387,-10.35784 5.34382,0 9.37616,-0.57177 9.37616,-1.3295 0,-3.22641 9.87688,-12.04741 15.04886,-13.44009 11.78537,-3.17346 25.96977,2.40264 28.93023,11.37291 0.85857,2.6015 1.96451,4.72227 2.45764,4.71281 0.49313,-0.009 4.70006,-1.20946 9.34872,-2.66667 4.64867,-1.4572 10.64867,-2.64722 13.33334,-2.64448 11.36459,0.0116 18.71299,10.00099 19.93653,27.10164 l 0.65465,9.14959 5.47835,2.4063 c 3.0374,1.33414 9.68603,6.77233 14.92188,12.20523 15.41647,15.99663 41.88979,46.1355 41.88979,47.68993 0,0.79328 -2.1,1.44233 -4.66666,1.44233 -5.59345,0 -5.94306,1.85473 -1.91723,10.17099 3.09612,6.39572 10.1298,11.59154 27.44317,20.27244 5.9726,2.99465 12.13897,7.07169 13.70304,9.06008 l 2.84376,3.61526 -4.90308,1.6856 c -10.51766,3.6158 -9.30542,10.74154 2.48431,14.60316 22.04028,7.2191 41.4239,21.36292 55.73681,40.66996 6.93019,9.34832 7.92537,11.92251 4.60921,11.92251 -2.87232,0 -2.46314,4.38491 0.7958,8.52798 2.13997,2.72054 2.44266,3.97977 1.29037,5.3682 -1.24373,1.49859 0.64602,1.96697 10.87087,2.69434 29.80595,2.12032 62.76165,6.01705 64.3539,7.6093 0.2866,0.2866 -0.0175,10.10888 -0.67583,21.8273 C 753.97678,392.41221 752.76582,439.8 751.94406,486 c -0.82175,46.2 -1.89534,92.33556 -2.38575,102.52346 l -0.89166,18.52347 7.62089,9.47653 c 4.19149,5.2121 9.44149,12.86053 11.66666,16.99651 4.46341,8.29622 5.39319,15.81336 1.95593,15.81336 -1.35332,0 -1.85683,0.82235 -1.42868,2.33334 1.62377,5.73042 2.38457,26.7194 0.99955,27.57539 -0.79402,0.49073 -4.05479,-0.63798 -7.24615,-2.50824 -3.19137,-1.87027 -6.9247,-3.40049 -8.29629,-3.40049 -1.94769,0 -1.25281,1.26448 3.1732,5.77426 8.08654,8.23958 13.69103,26.24277 19.59904,62.95764 1.15015,7.14758 2.93456,14.62649 3.96535,16.61981 1.03079,1.99332 6.09835,7.53518 11.26125,12.31524 8.31087,7.69458 9.06099,8.77629 6.54274,9.43483 -7.18393,1.87864 1.54647,23.2616 22.95865,56.23156 23.12626,35.60925 35.02241,64.05549 31.74771,75.9155 -0.78413,2.83986 -4.56907,7.3408 -11.13219,13.23808 -20.81913,18.70698 -37.51028,52.33776 -41.44803,83.51305 -1.82373,14.4385 -9.67932,24.4071 -24.23339,30.7517 -3.0949,1.3491 -12.24351,4.0595 -20.33024,6.023 -13.57539,3.2962 -15.15015,4.017 -20.53081,9.3977 -3.27787,3.2779 -7.08559,5.8276 -8.70275,5.8276 -3.81492,0 -5.64651,-5.0488 -4.60038,-12.6811 0.45122,-3.2921 0.46549,-5.9855 0.0317,-5.9855 -0.43378,0 -2.9286,1.4521 -5.54405,3.227 -5.80098,3.9367 -23.06128,10.8525 -24.21238,9.7014 -0.45798,-0.458 -0.23173,-3.2003 0.50277,-6.094 l 1.33546,-5.2613 -5.14851,1.8165 c -2.83169,0.9991 -7.89391,3.4254 -11.24938,5.3919 -8.01375,4.6963 -9.68184,3.2933 -7.47115,-6.2839 0.87559,-3.7933 1.32473,-7.1641 0.99807,-7.4908 -1.51254,-1.5125 -8.98971,1.5943 -15.36407,6.3839 -10.27319,7.7191 -11.83852,7.0237 -8.2239,-3.6536 2.83093,-8.3624 11.77276,-20.4909 18.92875,-25.6747 3.73949,-2.7089 8.12398,-4.2889 14.9186,-5.3762 17.34827,-2.776 21.33446,-4.659 30.4165,-14.3677 10.86744,-11.61733 22.1433,-29.07749 26.06963,-40.36766 1.86868,-5.37338 3.4963,-13.94278 4.00238,-21.07241 1.49329,-21.03768 -3.71479,-37.79077 -14.97467,-48.16976 -5.69741,-5.2517 -15.18346,-10.61428 -18.89116,-10.67942 -2.57211,-0.0452 -1.97385,5.12767 1.09079,9.43156 L 712.18157,888 h -3.1647 c -1.871,0 -6.81361,-3.00979 -12.09079,-7.36266 l -8.9261,-7.36266 v 5.45032 c 0,2.99767 0.62111,6.61087 1.38025,8.02932 2.49911,4.66963 -1.28409,2.88864 -9.39111,-4.42099 -4.26999,-3.85 -9.89579,-8.13448 -12.50178,-9.52107 l -4.73815,-2.52107 -7.70794,7.44889 c -14.44751,13.96196 -35.83741,28.75995 -55.80169,38.60478 l -8.70246,4.29137 -11.15318,-5.71103 C 554.41075,902.13758 527.99018,881.95296 511.85299,863.33333 500.6185,850.3706 486.48231,828.91327 477.8904,811.78149 c -3.98531,-7.94648 -7.69101,-14.44074 -8.23488,-14.43167 -0.54388,0.009 -4.23189,4.35906 -8.19559,9.66666 -7.8617,10.52722 -15.33892,25.37004 -16.84631,33.44111 l -0.95703,5.12426 -7.54126,-8.12426 c -12.21095,-13.15496 -12.10744,-13.34964 -12.16218,22.87574 -0.0345,22.86542 -0.57739,33.27419 -2.06872,39.66667 -1.11203,4.76667 -2.36729,11.51667 -2.78947,15 -0.42217,3.48333 -1.23791,6.33333 -1.81275,6.33333 -1.45457,0 -7.62739,-7.51071 -10.09562,-12.28374 -2.61593,-5.05866 -3.52614,-4.20396 -1.81616,1.70539 0.72865,2.51809 2.1635,10.87835 3.18856,18.57835 1.02505,7.7 3.23323,22.78444 4.90706,33.52098 4.34786,27.88859 4.25441,28.12537 -14.98446,37.96629 -13.18393,6.7438 -16.5176,9.247 -31.14788,23.3888 -14.03196,13.5635 -17.50464,16.2226 -24.19209,18.5245 -10.13457,3.4885 -27.03882,5.2143 -51.35767,5.243 -27.12997,0.032 -44.45789,3.7439 -62.10957,13.3044 l -7.37216,3.9929 z m 511.80796,-7.3233 c 2.7062,-2.3612 6.79865,-5.2643 9.09435,-6.4514 3.40499,-1.7608 3.88089,-2.5117 2.58306,-4.0755 -2.35081,-2.8325 -9.41836,-2.2417 -13.52916,1.131 -3.62431,2.9736 -7.73526,10.984 -7.73526,15.0725 0,2.493 0.69518,2.0814 9.58701,-5.6766 z m -498.15662,2.1288 c 2.41377,-2.3395 6.90341,-4.7776 10.47615,-5.689 3.43868,-0.8772 6.31353,-2.1849 6.38856,-2.906 0.075,-0.721 -2.72402,-3.0865 -6.22013,-5.2566 l -6.35655,-3.9456 -5.85921,6.2013 c -4.66372,4.9361 -5.8592,7.1694 -5.8592,10.9457 0,5.8679 1.87752,6.0322 7.43038,0.6502 z M 697.03187,1030 c -0.26955,-2.9522 -1.12674,-4.1084 -3.27222,-4.4139 -5.75136,-0.8188 -21.75967,17.3485 -21.75967,24.6944 0,2.7718 1.31393,2.0895 12.69855,-6.5944 11.52577,-8.7915 12.66482,-10.0555 12.33334,-13.6861 z m 11.26746,16.6667 c 9.82082,-5.7627 12.3493,-8.7583 10.80014,-12.7953 -0.92699,-2.4157 -6.21896,-2.3952 -10.93257,0.042 -5.73273,2.9645 -13.50025,12.2784 -13.50025,16.1879 0,4.2874 0.82751,4.0789 13.63268,-3.4349 z m -491.09304,-1.8939 c 3.00223,-2.5083 7.26399,-4.9571 9.47058,-5.4417 4.13348,-0.9079 7.34335,-4.9512 6.23125,-7.8493 -0.3468,-0.9038 -3.18439,-2.4084 -6.30576,-3.3435 l -5.67521,-1.7004 -6.50215,6.5022 c -4.64616,4.6461 -6.73123,7.9138 -7.3047,11.4477 -0.7057,4.3487 -0.47492,4.9455 1.91242,4.9455 1.49323,0 5.17134,-2.0522 8.17357,-4.5605 z M 291.3466,1042 l -0.85702,4 3.13863,-3.6667 c 3.53566,-4.1305 5.03845,-4.6177 5.03845,-1.6336 0,3.3425 5.65531,4.5765 14.8691,3.2443 4.65533,-0.673 10.86423,-1.2416 13.79757,-1.2635 11.06238,-0.083 21.32719,-7.4107 42.18375,-30.1151 4.30675,-4.6883 10.23359,-8.8608 19.52595,-13.74611 19.00267,-9.99046 19.66517,-10.874 19.44475,-25.93248 -0.0984,-6.72108 -1.74838,-20.89599 -3.66666,-31.49981 -4.48121,-24.77103 -4.56556,-42.72033 -0.20074,-42.72033 0.89121,0 3.27877,2.25 5.30569,5 l 3.68532,5 -0.7888,-8.3672 c -0.43383,-4.60196 -1.18101,-10.00196 -1.66039,-12 l -0.87161,-3.6328 3.52137,3.23242 c 5.12749,4.70675 4.99818,3.69542 -2.69219,-21.05573 -0.43032,-1.38495 0.33424,-1.03176 2.10195,0.97102 1.52805,1.73124 2.77827,2.89379 2.77827,2.58345 0,-0.31034 -1.79683,-5.87999 -3.99295,-12.37698 -2.19613,-6.497 -3.74032,-12.06536 -3.43154,-12.37414 0.30878,-0.30878 2.40561,1.98442 4.65962,5.09599 4.59356,6.34123 4.81771,5.62092 2.0982,-6.7427 -2.40469,-10.93241 -2.38998,-12.13961 0.0975,-8 l 2.00297,3.33333 L 416.71687,835 c -0.39428,-2.38333 -1.09491,-6.27156 -1.55695,-8.64051 -0.75494,-3.87068 -0.61982,-4.12438 1.33333,-2.50341 1.94096,1.61086 2.17341,1.28721 2.17341,-3.02615 0,-5.39831 0.68937,-5.826 4.22834,-2.62328 2.30014,2.0816 2.43832,2.01863 2.43832,-1.11111 0,-5.49207 1.62589,-5.39662 4.15113,0.2437 1.31184,2.93008 2.56882,5.32743 2.79329,5.32743 0.22447,0 0.26284,-2.85 0.0853,-6.33334 L 432.04013,810 l 3.20916,8.66667 3.20916,8.66666 0.1041,-8.49659 c 0.0906,-7.39508 0.36339,-8.28141 2.10411,-6.83674 2.44272,2.02728 2.44831,1.41649 0.0793,-8.65567 -1.03348,-4.39395 -1.66749,-8.20057 -1.40891,-8.45915 0.25859,-0.25859 1.7452,1.83647 3.30359,4.65567 1.96655,3.55759 2.58668,4.10599 2.02691,1.79248 -0.44359,-1.83333 -1.14514,-5.73333 -1.55901,-8.66666 -0.72295,-5.12397 -0.66495,-5.22865 1.47753,-2.66667 2.11893,2.53382 2.18783,2.26811 1.383,-5.33333 -0.78326,-7.39765 -0.69168,-7.79922 1.21621,-5.33334 1.99833,2.58276 2.06644,2.54081 2.16459,-1.33333 l 0.10133,-4 2.76418,5.24286 2.76419,5.24286 1.70407,-3.18408 c 1.55059,-2.89732 1.79431,-2.22873 2.70615,7.42381 l 1.00209,10.60788 2.58563,-6 2.58563,-6 -6.08268,-18 c -11.80715,-34.93998 -19.48226,-74.00517 -24.16572,-123 -0.47317,-4.95 -1.36652,-9 -1.98522,-9 -2.37446,0 -9.32951,-7.02409 -9.32951,-9.42211 0,-1.38512 -4.35,-8.59974 -9.66667,-16.03249 l -9.66666,-13.51409 -1.4794,14.48435 c -0.81367,7.96639 -1.56367,12.86975 -1.66667,10.89637 -0.28365,-5.4347 -2.85393,-6.02393 -2.85393,-0.65427 0,2.51999 -0.98704,8.95252 -2.19341,14.29451 -1.86092,8.2404 -2.44055,9.37472 -3.8238,7.48302 -1.38859,-1.89902 -1.89677,-0.99177 -3.4266,6.11751 l -1.79621,8.3472 -0.74443,-7.33333 -0.74444,-7.33333 -1.78006,8 c -2.49827,11.22784 -4.03908,13.41008 -4.2364,6 l -0.15977,-6 -1.6824,6.09725 c -0.92532,3.35349 -2.35343,7.25349 -3.17357,8.66666 -1.25135,2.15621 -1.51442,1.4973 -1.6358,-4.09725 l -0.14465,-6.66666 -3.12513,8.66666 C 368.28117,670.1 366.78117,673.1 366.66666,672 c -0.11451,-1.1 -1.64483,1.9 -3.4007,6.66667 l -3.1925,8.66666 L 360.85478,681 c 0.42973,-3.48333 0.46212,-6.33333 0.072,-6.33333 -0.39015,0 -2.10813,4.05 -3.81775,9 l -3.10841,9 -0.66697,-7.01774 -0.66697,-7.01774 -3.85032,7.38964 c -4.25672,8.16961 -5.95759,8.81055 -3.48301,1.3125 0.8795,-2.66493 1.37076,-5.07368 1.09168,-5.35276 -0.27909,-0.27908 -7.22017,3.69386 -15.42464,8.82877 -17.30287,10.82931 -27.41299,21.05516 -41.65263,42.12943 -6.52631,9.65874 -10.17979,16.72905 -12.59468,24.37351 -3.51204,11.11758 -8.75307,37.61545 -8.75307,44.25424 0,4.39217 2.09132,5.01341 3.36523,0.99967 0.48304,-1.52194 1.12218,-2.52323 1.42031,-2.2251 0.29813,0.29813 -0.95536,4.94464 -2.78554,10.32558 -1.83017,5.38093 -3.16133,9.94977 -2.95813,10.15297 0.2032,0.2032 3.57007,-4.72992 7.48194,-10.9625 3.91187,-6.23257 7.34455,-11.09989 7.62817,-10.81627 0.28363,0.28362 -1.88454,6.41468 -4.81815,13.62457 -2.9336,7.2099 -5.33383,13.69184 -5.33383,14.40433 0,0.71249 3.28902,-3.73674 7.30893,-9.88717 4.01991,-6.15043 7.31206,-10.5826 7.31588,-9.84927 0.004,0.73334 -2.36066,8.80787 -5.25442,17.9434 -2.89375,9.13554 -5.08738,16.78406 -4.87472,16.99671 0.21265,0.21266 4.17246,-6.22753 8.79957,-14.31154 4.62711,-8.084 8.64798,-14.46313 8.93527,-14.17584 0.28729,0.28729 -2.79705,8.21933 -6.85408,17.62675 -4.05704,9.40743 -7.34576,17.43804 -7.30828,17.8458 0.0375,0.40777 3.07479,-5.1713 6.74958,-12.39792 3.67478,-7.22662 6.93402,-12.88672 7.24275,-12.57799 0.30873,0.30872 -1.24576,5.25424 -3.45442,10.99003 -2.20865,5.73579 -3.80591,10.63852 -3.54947,10.89497 0.25645,0.25644 1.86008,-2.97638 3.56364,-7.18405 5.12946,-12.66948 5.29791,-10.74119 0.57453,6.57718 -2.46597,9.04154 -4.4433,17.03917 -4.39406,17.7725 0.0492,0.73334 2.72573,-4.06666 5.94776,-10.66666 3.22204,-6.6 5.87174,-11.2933 5.88823,-10.42955 0.0165,0.86374 -1.46851,7.16374 -3.29999,14 -1.83148,6.83625 -3.30237,12.72955 -3.26864,13.09621 0.0337,0.36667 2.10311,-3.23333 4.59861,-8 5.28493,-10.09475 5.55344,-9.55774 2,4 -3.61483,13.79196 -3.22568,15.47234 1.31229,5.66667 2.12112,-4.58333 4.10089,-8.33333 4.3995,-8.33333 0.2986,0 -0.5327,5.55 -1.84734,12.33333 -3.37577,17.41846 -2.9791,18.98164 2.11464,8.33333 5.21233,-10.89623 5.5856,-10.30096 2.05835,3.28251 -1.42095,5.47205 -2.38062,10.15209 -2.13261,10.40011 0.24802,0.24801 2.31534,-2.57912 4.59406,-6.28251 2.27872,-3.70339 4.37958,-6.73344 4.66858,-6.73344 0.289,0 0.21506,4.05 -0.16432,9 l -0.68977,9 3.50998,-3.23242 3.50997,-3.23242 v 7.14854 7.14854 l 3.89265,-3.72939 3.89265,-3.7294 -1.19417,5.14661 c -0.6568,2.83063 -1.20849,6.26308 -1.22599,7.62765 -0.0282,2.19776 0.28232,2.12164 2.71932,-0.66666 l 2.75113,-3.14772 -0.82222,5.33334 c -0.45222,2.93333 -1.15854,6.47117 -1.5696,7.86187 -0.60628,2.05116 -0.21526,2.38939 2.07109,1.79149 3.14531,-0.82251 3.53642,0.51379 1.34748,4.60386 -1.08057,2.01907 -1.07006,2.99636 0.0396,3.68218 1.03586,0.64019 0.56602,2.13445 -1.49501,4.75462 -2.5246,3.2095 -2.6242,3.67465 -0.62235,2.90647 2.0571,-0.78938 1.97946,-0.34745 -0.56729,3.22913 l -2.95056,4.14368 3.19997,-0.89509 c 3.11716,-0.87192 3.10316,-0.80688 -0.54106,2.51335 -3.69608,3.3675 -3.70409,3.40854 -0.66667,3.41722 2.9163,0.008 2.86871,0.15169 -0.92564,2.78848 l -4,2.77969 L 327,959.42974 c 5.07044,-1.12547 4.58404,0.0223 -1.33333,3.14615 -4.56863,2.41186 -4.71242,2.64928 -1.66667,2.7519 3.30188,0.11125 3.29559,0.13234 -0.66666,2.23486 -5.47589,2.9057 -5.46613,2.88649 -2.56934,5.05451 2.43655,1.82356 2.33696,1.97096 -1.92689,2.85213 l -4.49622,0.9292 3.16289,1.75351 3.16289,1.75351 -3.44445,0.0472 c -5.95851,0.0817 -5.59013,1.86055 1.03971,5.02048 3.52261,1.67894 4.90474,2.75003 3.07141,2.38017 -11.13003,-2.24534 -20.95993,-2.28164 -25.19221,-0.093 -2.93916,1.5199 -11.40069,2.87851 -25.79063,4.14101 -23.01468,2.01919 -23.16361,2.04571 -34.68383,6.17545 -4.66235,1.67135 -7.66667,3.52498 -7.66667,4.73028 0,2.1098 0.69582,2.0242 12.08333,-1.4868 5.55392,-1.71237 6.36442,-1.66356 9.31341,0.5609 1.77655,1.34 2.87988,2.7866 2.45184,3.2147 -0.42804,0.428 -4.29399,1.694 -8.59099,2.8132 -4.29701,1.1192 -8.02419,2.2464 -8.28264,2.5048 -0.25844,0.2585 1.06199,2.0018 2.93428,3.8741 l 3.40418,3.4042 5.67663,-2.4514 c 3.12215,-1.3483 9.16951,-2.8651 13.43858,-3.3707 4.26907,-0.5055 9.7998,-1.7706 12.29051,-2.8113 2.4907,-1.0407 5.59783,-1.8731 6.90472,-1.8497 2.13826,0.038 2.1642,0.205 0.25913,1.6666 -1.16437,0.8934 -1.89093,2.2946 -1.61459,3.1139 0.5824,1.7266 -5.52794,3.1744 -13.43505,3.1833 -6.90758,0.01 -22.64737,7.8748 -23.22536,11.6085 -0.21562,1.3928 0.81168,3.6217 2.28287,4.9532 2.59814,2.3512 2.79408,2.3204 6.82766,-1.0736 3.09238,-2.6021 5.63861,-3.4943 9.97177,-3.4943 3.20046,0 6.18983,0.6 6.64306,1.3333 0.45322,0.7333 -0.15014,1.3333 -1.3408,1.3333 -2.9503,0 -15.32587,5.4096 -15.32587,6.6992 0,2.0125 9.53901,6.6342 13.69279,6.6342 2.94669,0 5.13871,-1.0985 7.31695,-3.6667 l 3.10991,-3.6667 -0.78937,4.6667 -0.78938,4.6667 2.84076,-3.6667 c 1.56242,-2.0167 3.45576,-3.6667 4.20743,-3.6667 0.81303,0 1.01405,1.4854 0.49622,3.6667 l -0.87044,3.6667 3.27305,-4 c 3.97936,-4.8632 5.98257,-3.7106 2.69564,1.5509 l -2.36285,3.7824 4.35812,-4 4.35812,-4 z m 43.86654,-35.1389 c 0.51933,-0.8403 2.03981,-1.5278 3.37886,-1.5278 1.33905,0 3.43702,-1.5298 4.66216,-3.3996 1.5408,-2.35156 2.98786,-3.15833 4.69377,-2.61689 1.75124,0.55582 3.31813,-0.4136 5.40461,-3.34379 4.01705,-5.64144 4.92083,-4.05186 1.07618,1.8928 -1.88713,2.91788 -3.82688,4.51408 -4.96934,4.08918 -1.03067,-0.3834 -3.13067,0.4754 -4.66666,1.9085 -3.21689,3.0012 -11.10788,5.4705 -9.57958,2.9976 z m 25.45512,-17.43054 c 0.73407,-4.84133 1.53151,-6.34189 2.73218,-5.14122 0.40358,0.40358 -0.20195,2.75358 -1.34562,5.22222 L 359.97541,994 Z m 6.76899,-2.09723 c 1.75553,-7.32006 3.35826,-9.81304 2.64558,-4.11507 -0.35898,2.87004 -1.31693,5.87004 -2.12878,6.66666 -1.07642,1.05623 -1.21635,0.36535 -0.5168,-2.55159 z m 4.59574,-2.75346 c 0.71519,-1.88108 1.30033,-5.58108 1.30033,-8.22223 0,-2.64114 0.43219,-4.3699 0.96041,-3.84168 1.93875,1.93875 -0.11752,15.48404 -2.35059,15.48404 -0.70173,0 -0.66397,-1.43743 0.0898,-3.42013 z m 4.0439,0.0868 c 0.01,-0.73334 0.87507,-2.83334 1.9231,-4.66667 1.04803,-1.83333 1.92677,-6.51874 1.95275,-10.41202 0.0292,-4.36902 0.55764,-6.76325 1.38058,-6.25465 1.48773,0.91947 1.73484,6.32585 0.55807,12.20967 -0.75625,3.78124 -5.84948,11.77314 -5.8145,9.12367 z m 9.37507,-7.46315 c -0.90024,-3.00472 -1.27141,-5.82852 -0.82483,-6.2751 0.44658,-0.44658 1.15814,0.51183 1.58125,2.12981 1.21205,4.63487 3.11145,3.43619 3.26143,-2.05823 l 0.13648,-5 1.04229,4.40099 c 1.8481,7.80346 2.68474,6.29347 2.68474,-4.84543 0,-11.79161 1.81714,-14.53488 3.25898,-4.91997 0.4923,3.28291 1.43012,6.29958 2.08403,6.70372 1.08055,0.66782 1.51823,-0.92502 3.11583,-11.33931 0.28124,-1.83333 0.58387,-0.33333 0.6725,3.33333 0.18079,7.47838 -1.24009,10.66667 -4.75363,10.66667 -1.70795,0 -2.4954,1.22063 -2.79552,4.33333 -0.24169,2.50674 -1.16511,4.33334 -2.19068,4.33334 -0.97508,0 -2.11823,0.9 -2.54034,2 -1.32455,3.45172 -3.03601,2.19932 -4.73253,-3.46315 z M 355.45341,938.4846 c -0.31844,-0.99986 -0.95292,-4.06793 -1.40995,-6.81793 -0.90146,-5.42414 1.38175,-6.90571 4.6232,-3 2.27436,2.74043 3.65894,2.50839 4.70535,-0.78856 0.61066,-1.924 1.67198,-2.58278 3.42319,-2.12483 1.39597,0.36505 2.53812,0.11991 2.53812,-0.54477 0,-0.66468 0.9,-1.20851 2,-1.20851 1.48846,0 2,1.57162 2,6.14454 0,5.88839 -0.13896,6.10967 -3.33333,5.30793 -2.45982,-0.61737 -3.33333,-0.30584 -3.33333,1.18879 0,1.11398 -1.05,2.0336 -2.33334,2.04361 -1.28333,0.01 -3.67604,0.37809 -5.31713,0.81794 -1.91466,0.51318 -3.19125,0.14834 -3.56278,-1.01821 z m 21.43547,-6.04016 c -0.48889,-0.48888 -0.88889,-4.38888 -0.88889,-8.66666 0,-5.95082 0.45996,-7.77778 1.95815,-7.77778 1.1928,0 1.65818,-0.78172 1.19069,-2 -0.52639,-1.37174 0.0801,-2 1.93073,-2 1.48402,0 2.96607,0.75 3.29345,1.66667 0.32738,0.91666 1.00081,1.29324 1.4965,0.83682 0.4957,-0.45641 -0.0134,-3.45641 -1.13139,-6.66666 -2.57341,-7.38963 -2.57818,-9.17016 -0.0245,-9.17016 1.67453,0 1.77077,-0.51598 0.52901,-2.83624 -1.15954,-2.16661 -1.12877,-3.07673 0.13032,-3.85489 1.27066,-0.78531 1.15818,-1.71832 -0.49103,-4.0729 -1.5197,-2.16968 -1.73732,-3.53857 -0.75138,-4.72654 0.9622,-1.15939 0.95804,-2.47548 -0.0136,-4.29092 -1.10073,-2.05674 -0.93659,-2.797 0.76498,-3.44995 2.46587,-0.94624 2.23501,-1.10412 4.36379,2.98419 1.29228,2.48181 1.98034,2.77619 3.51394,1.50341 2.47475,-2.05386 5.62763,0.42058 8.11356,6.36768 2.36751,5.66383 2.28146,9.70949 -0.20654,9.70949 -1.92931,0 -2.60759,3.31722 -2.07589,10.15233 0.1654,2.12627 -0.74136,3.01112 -3.69003,3.60085 -3.71884,0.74377 -3.9549,1.20736 -4.8445,9.51434 C 389.26396,926.66583 388.72988,928 386.56054,928 384.6286,928 384,927.0581 384,924.16326 c 0,-2.11021 -0.99921,-4.66021 -2.22046,-5.66667 -2.03365,-1.67596 -2.14834,-1.2997 -1.36314,4.47204 1.11287,8.18045 -0.49736,12.50596 -3.52751,9.47581 z m 19.99193,-43.47089 c -1.06813,-2.55641 -2.61672,-5.06497 -3.44131,-5.5746 -0.82459,-0.50962 -0.17264,1.80397 1.44876,5.14131 3.40433,7.00714 4.87269,7.32644 1.99255,0.43329 z m -23.33696,-18.30688 c 0,-1.83334 0.30263,-2.58334 0.67252,-1.66667 0.36988,0.91667 0.36988,2.41667 0,3.33333 -0.36989,0.91667 -0.67252,0.16667 -0.67252,-1.66666 z m -1.38611,-13.74952 -0.15775,-5.08285 5.99779,4.30729 c 3.29878,2.369 5.72412,4.58095 5.38964,4.91542 -0.33447,0.33448 -2.58348,-1.05535 -4.99778,-3.0885 l -4.38965,-3.69665 -0.84225,3.86407 c -0.78333,3.59381 -0.85328,3.50857 -1,-1.21878 z m 9.28085,-1.69493 c 0.064,-1.55326 0.37992,-1.8692 0.80555,-0.80555 0.38516,0.9625 0.3378,2.1125 -0.10526,2.55555 -0.44306,0.44306 -0.75819,-0.34444 -0.70029,-1.75 z m -1.33334,-6.66666 c 0.064,-1.55326 0.37992,-1.8692 0.80556,-0.80556 0.38516,0.9625 0.33779,2.1125 -0.10526,2.55556 -0.44306,0.44305 -0.75819,-0.34445 -0.7003,-1.75 z m -1.33333,-6.66667 c 0.064,-1.55326 0.37992,-1.8692 0.80556,-0.80556 0.38516,0.9625 0.33779,2.1125 -0.10527,2.55556 -0.44305,0.44305 -0.75818,-0.34445 -0.70029,-1.75 z m 11.79382,-1.54602 c -2.62995,-2.9755 -2.6951,-3.20525 -0.34956,-1.2327 2.78738,2.34414 2.90369,2.34383 3.512,-0.01 0.41859,-1.6194 0.6809,-1.20686 0.78381,1.2327 0.0851,2.01667 -0.0407,3.66667 -0.27958,3.66667 -0.23884,0 -1.88884,-1.64571 -3.66667,-3.65713 z m -13.12715,-5.12065 c 0.064,-1.55326 0.37992,-1.8692 0.80555,-0.80555 0.38516,0.9625 0.3378,2.1125 -0.10526,2.55555 -0.44306,0.44306 -0.75819,-0.34444 -0.70029,-1.75 z M 382.59488,831 l -4.59489,-5 5,4.59489 c 2.75,2.52719 5,4.77719 5,5 0,1.01816 -1.12829,0.059 -5.40511,-4.59489 z m 9.51037,0.22222 c 0.064,-1.55326 0.37992,-1.8692 0.80556,-0.80555 0.38516,0.9625 0.33779,2.1125 -0.10526,2.55555 -0.44306,0.44306 -0.75819,-0.34444 -0.7003,-1.75 z m -15.79592,-4.55555 c 0,-2.56667 0.27439,-3.61667 0.60976,-2.33334 0.33537,1.28334 0.33537,3.38334 0,4.66667 -0.33537,1.28333 -0.60976,0.23333 -0.60976,-2.33333 z m 14.46259,-2.11111 c 0.064,-1.55326 0.37992,-1.8692 0.80556,-0.80556 0.38516,0.9625 0.33779,2.1125 -0.10527,2.55556 -0.44305,0.44305 -0.75818,-0.34445 -0.70029,-1.75 z m 7.89474,-5.88889 C 397.88172,817.2 397.5395,816 397.90617,816 c 0.36666,0 1.30888,1.2 2.09382,2.66667 0.78494,1.46666 1.12716,2.66666 0.76049,2.66666 -0.36667,0 -1.30889,-1.2 -2.09382,-2.66666 z m -9.12281,-1.33334 c 0,-1.83333 0.30263,-2.58333 0.67252,-1.66666 0.36988,0.91666 0.36988,2.41666 0,3.33333 -0.36989,0.91667 -0.67252,0.16667 -0.67252,-1.66667 z m 14.5614,-2.11111 c 0.064,-1.55326 0.37992,-1.8692 0.80556,-0.80555 0.38516,0.9625 0.33779,2.1125 -0.10526,2.55555 -0.44306,0.44306 -0.75819,-0.34444 -0.7003,-1.75 z M 394.66666,812 c -0.78494,-1.46667 -1.12716,-2.66667 -0.76049,-2.66667 0.36666,0 1.30888,1.2 2.09382,2.66667 0.78494,1.46667 1.12716,2.66667 0.76049,2.66667 -0.36667,0 -1.30889,-1.2 -2.09382,-2.66667 z m -6.45614,-2.66667 c 0,-1.83333 0.30263,-2.58333 0.67251,-1.66666 0.36988,0.91666 0.36988,2.41666 0,3.33333 -0.36988,0.91667 -0.67251,0.16667 -0.67251,-1.66667 z m 14.5614,-2.11111 c 0.064,-1.55326 0.37992,-1.8692 0.80556,-0.80555 0.38516,0.9625 0.33779,2.1125 -0.10527,2.55555 -0.44305,0.44306 -0.75818,-0.34444 -0.70029,-1.75 z m -12.10526,-1.88889 c -0.78494,-1.46666 -1.12716,-2.66666 -0.76049,-2.66666 0.36666,0 1.30888,1.2 2.09382,2.66666 0.78494,1.46667 1.12716,2.66667 0.76049,2.66667 -0.36667,0 -1.30889,-1.2 -2.09382,-2.66667 z m -4,-4.07869 c 0,-1.50994 0.57379,-2.39073 1.2751,-1.9573 0.7013,0.43343 0.93711,1.66885 0.52401,2.74536 -1.05763,2.75615 -1.79911,2.43136 -1.79911,-0.78806 z m 10.01504,-8.75214 c -1.26041,-1.92362 -1.63264,-3.09021 -0.82718,-2.59241 1.53919,0.95128 4.64357,6.08991 3.67906,6.08991 -0.30813,0 -1.59147,-1.57387 -2.85188,-3.4975 z m 10.09022,1.38639 c 0.064,-1.55326 0.37992,-1.8692 0.80556,-0.80556 0.38516,0.9625 0.33779,2.1125 -0.10527,2.55556 -0.44305,0.44305 -0.75818,-0.34445 -0.70029,-1.75 z m 4.08709,-5.55556 c -1.45494,-3.40006 -1.42202,-3.47847 0.45265,-1.07849 1.86361,2.38583 2.02166,1.89684 2.02166,-6.25464 0,-8.92424 1.68711,-12.82718 3.16354,-7.31854 1.19047,4.44169 1.00262,6.57841 -0.49687,5.65167 -0.82178,-0.50788 -1.33333,1.76394 -1.33333,5.92131 0,7.48987 -1.42649,8.64326 -3.80765,3.07869 z M 402.66666,784 c -0.78494,-1.46667 -1.12716,-2.66667 -0.76049,-2.66667 0.36666,0 1.30888,1.2 2.09382,2.66667 0.78494,1.46667 1.12716,2.66667 0.76049,2.66667 -0.36667,0 -1.30889,-1.2 -2.09382,-2.66667 z m 17.03368,-16.33333 c 0.61766,-6.73203 1.16234,-8.74216 2.04732,-7.55556 0.84271,1.12992 -0.70746,14.55556 -1.68063,14.55556 -0.55491,0 -0.71992,-3.15 -0.36669,-7 z m -2.86896,0.94845 c -1.28664,-3.35292 -0.90709,-4.21807 0.66471,-1.51512 0.77825,1.33834 1.13413,2.71422 0.79084,3.05751 -0.3433,0.34329 -0.99829,-0.35078 -1.45555,-1.54239 z m 6.72417,-1.50401 c -0.48889,-0.48889 -0.88889,-1.50889 -0.88889,-2.26667 0,-0.83547 0.62102,-0.75675 1.57777,0.2 0.86778,0.86778 1.26778,1.88778 0.88889,2.26667 -0.37889,0.37889 -1.08889,0.28889 -1.57777,-0.2 z m 5.75113,-16.77778 c -1.34425,-2.77393 -1.30646,-2.81716 0.50144,-0.57363 1.89069,2.34626 2.00182,2.34626 3.36634,0 1.5568,-2.67689 1.94918,-1.83534 0.68288,1.46458 -1.13557,2.95924 -2.84726,2.62411 -4.55066,-0.89095 z m -3.97336,-3.66666 c 0,-0.73334 0.63541,-1.33334 1.41203,-1.33334 0.77661,0 1.0412,0.6 0.58797,1.33334 C 426.8801,747.4 426.24469,748 425.9213,748 c -0.32339,0 -0.58798,-0.6 -0.58798,-1.33333 z m 9.4386,-3.44445 c 0.064,-1.55326 0.37992,-1.8692 0.80556,-0.80555 0.38516,0.9625 0.33779,2.1125 -0.10527,2.55555 -0.44305,0.44306 -0.75819,-0.34444 -0.70029,-1.75 z m 245.00127,280.01248 c 0.24193,-0.1852 -0.57708,-1.8887 -1.82002,-3.7857 -3.37847,-5.1562 -8.01928,-4.5144 -14.17912,1.961 -4.82649,5.0737 -13.1074,19.3856 -13.1074,22.6535 0,0.8101 6.45,-3.4692 14.33333,-9.5096 7.88334,-6.0404 14.53128,-11.1341 14.77321,-11.3192 z m 83.76899,12.4297 c 1.32466,3.2494 11.25871,-0.3587 20.00442,-7.2657 6.55322,-5.1755 9.85581,-12.9255 17.21536,-40.3987 2.65202,-9.9 6.91583,-22.2 9.47513,-27.33333 5.98895,-12.01237 17.33581,-27.79066 28.95323,-40.26072 l 9.19034,-9.86485 -0.842,-9.96093 c -0.95889,-11.34354 -1.39995,-12.342 -19.34319,-43.78838 -18.57529,-32.55407 -22.80118,-36.66998 -39.86216,-38.82465 -10.18034,-1.28569 -8.56928,-3.29607 2.66667,-3.32762 l 9.66667,-0.0271 -13.32616,-6.07679 c -7.32938,-3.34223 -13.62938,-6.41064 -14,-6.81869 -0.37061,-0.40805 4.27652,-0.41799 10.32696,-0.0221 6.05044,0.3959 10.68682,0.21178 10.30306,-0.40915 -0.38375,-0.62093 -6.42575,-5.12257 -13.42667,-10.00365 -7.00092,-4.88108 -12.48574,-9.11789 -12.1885,-9.41513 0.29724,-0.29725 4.03733,0.66267 8.31131,2.13313 4.27398,1.47046 8.00062,2.44382 8.28143,2.16301 0.28081,-0.28081 -2.54583,-2.75416 -6.28143,-5.49634 -3.7356,-2.74218 -6.52865,-5.24913 -6.20678,-5.571 0.32187,-0.32187 2.90007,0.37615 5.72933,1.55117 5.04516,2.09528 4.96457,1.95219 -4.18922,-7.43878 -9.56171,-9.80946 -9.52018,-10.25602 0.33334,-3.58377 7.36385,4.98639 7.21895,3.12105 -0.33334,-4.29096 -6.4905,-6.36994 -7.53449,-8.66673 -3.33333,-7.33333 3.21158,1.01931 3.21459,0.98848 0.53886,-5.50383 -2.4185,-5.86818 -6.8577,-11.16284 -9.35926,-11.16284 -0.92889,0 -2.05524,-0.59276 -2.50299,-1.31725 -0.51778,-0.83777 1.39491,-1.01447 5.25464,-0.48543 3.33781,0.4575 6.06684,0.30026 6.06451,-0.34942 -0.002,-0.64968 -2.40043,-4.78123 -5.32909,-9.18123 -5.58336,-8.38838 -6.75717,-12.1948 -3.33334,-10.80932 1.1,0.44513 2.96746,1.1994 4.14991,1.67616 1.82067,0.7341 2.00934,0.17259 1.23204,-3.66666 -2.13187,-10.52969 -19.276,-39.86685 -23.29749,-39.86685 -0.68992,0 -1.62926,2.85 -2.08743,6.33334 -9.74154,74.0619 -33.8568,136.69603 -69.06711,179.38671 -2.89718,3.51269 -5.04163,6.58893 -4.76543,6.8361 0.89917,0.80467 11.70888,6.11052 12.44906,6.11052 0.39588,0 0.73875,-4.65 0.76192,-10.33333 l 0.0421,-10.33334 2.95786,3.41135 c 1.62683,1.87625 5.2283,6.07625 8.00327,9.33334 l 5.0454,5.92198 -0.85058,-8.66667 -0.85059,-8.66666 L 700.7065,859 c 2.74095,3.48333 5.2622,6.33333 5.60277,6.33333 0.34056,0 0.21312,-3.75 -0.28322,-8.33333 l -0.90244,-8.33333 4.80694,7 c 2.64382,3.85 5.02191,7 5.28465,7 0.26274,0 0.24407,-4.05 -0.0415,-9 l -0.5192,-9 2.60245,8.45578 c 1.43134,4.65069 2.84986,9.15069 3.15226,10 0.3024,0.84932 1.11477,-1.75578 1.80527,-5.78912 L 723.46993,850 l 1.04574,8.66667 1.04574,8.66666 2.54619,-4.66666 2.54618,-4.66667 -0.76128,7.33333 -0.76129,7.33334 2.73807,-3.33334 c 3.02083,-3.67756 3.65719,-2.01257 1.25002,3.2706 -1.19731,2.6278 -1.16089,4.22556 0.161,7.06274 l 1.70835,3.66666 1.37609,-3 c 2.12219,-4.6266 3.63524,-3.56942 3.63524,2.53999 0,5.42336 0.0552,5.49005 2.62101,3.168 2.56673,-2.32286 2.59627,-2.28572 1.42641,1.79335 -1.04165,3.632 -0.86726,4.16533 1.36199,4.16533 2.36291,0 2.50115,0.78279 1.82487,10.33333 -0.40244,5.68334 -0.93589,11.3729 -1.18544,12.64347 -0.55181,2.80957 7.64784,10.35653 11.2522,10.35653 4.23466,0 4.12494,2.03699 -0.24888,4.62067 -3.66423,2.16451 -3.88766,2.62499 -1.95825,4.0358 1.94977,1.42571 1.8293,1.77908 -1.15011,3.37361 -2.0557,1.10018 -2.76542,2.1288 -1.85643,2.69059 0.91167,0.56344 -0.22011,2.24251 -2.97456,4.41296 -3.7324,2.94106 -4.01806,3.51354 -1.77947,3.5662 2.32354,0.0547 2.15198,0.48462 -1.33334,3.3415 -3.12409,2.56079 -3.47593,3.28021 -1.60674,3.28538 1.83776,0.005 0.57874,2.40505 -5.42438,10.33996 -10.62141,14.03938 -10.38234,13.44073 -6.04911,15.14737 4.12851,1.626 4.1599,1.59593 -5.58643,5.35197 l -4,1.54152 3.28726,0.86214 c 2.96378,0.7773 2.27563,1.44772 -6.9932,6.8129 -5.65425,3.27292 -10.02937,6.6304 -9.72248,7.461 0.76957,2.0829 -10.84044,8.1814 -17.64742,9.2699 -5.90713,0.9446 -6.76077,2.4435 -3.74242,6.5714 1.79524,2.4551 2.13086,2.4147 11.66667,-1.4053 6.11289,-2.4487 12.97683,-6.6017 18.18767,-11.0043 11.50076,-9.71692 17.49957,-13.62007 20.81665,-13.54446 4.80386,0.10949 -17.78615,20.00966 -30.25751,26.65466 -9.73825,5.1888 -10.45526,5.8422 -8.21109,7.4832 3.33268,2.4369 3.05008,2.4991 16.13594,-3.5466 6.36264,-2.9396 11.81976,-5.0933 12.12694,-4.7862 0.30718,0.3072 -3.23774,3.1623 -7.87759,6.3447 -8.0075,5.4921 -8.24614,5.8079 -4.69732,6.215 2.41254,0.2767 4.26208,1.5773 5.21402,3.6666 0.81139,1.7808 1.88592,3.2378 2.38785,3.2378 0.50193,0 4.60562,-2.3869 9.11931,-5.3042 8.60359,-5.5608 9.87221,-5.5675 5.54005,-0.029 -3.74126,4.7829 -3.29769,5.4609 2.09787,3.2065 5.35207,-2.2362 9.90213,-1.429 9.90213,1.7567 0,1.8681 0.29906,1.8461 2.54591,-0.1873 2.4289,-2.1981 2.58947,-2.1667 3.4936,0.6819 l 0.94768,2.9859 2.60492,-3.2219 c 1.75447,-2.1699 2.82644,-2.6784 3.28342,-1.5574 z m 37.28874,-77.7171 c -1.24,-3.2314 -1.00298,-9.9473 0.35106,-9.9473 0.6501,0 1.46054,1.65 1.80098,3.66667 0.34044,2.01666 0.85854,4.49166 1.15133,5.5 0.76634,2.63913 -2.31112,3.36638 -3.30337,0.78063 z m 3.43691,-15.70863 C 802.30728,936.81686 802.28112,936 804.06802,936 c 0.77075,0 2.27075,2.08073 3.33333,4.62384 2.36345,5.65653 2.37622,6.04283 0.19982,6.04283 -0.95269,0 -2.45269,-1.9926 -3.33334,-4.428 z m 5.5995,-2.572 c -2.50298,-7.47078 -2.56932,-7.98687 -1.0971,-8.53453 1.77962,-0.66201 4.56308,5.19228 4.56308,9.59726 0,4.60108 -1.74796,4.06512 -3.46598,-1.06273 z m 4.39167,-6.6783 c -3.79865,-6.48192 -4.86213,-10.52536 -2.92569,-11.12373 1.1501,-0.35538 5.21161,6.92824 8.06807,14.46869 1.73488,4.57973 -1.87386,2.23235 -5.14238,-3.34496 z m 4.36524,-6.65504 c -0.0233,-1.65 -0.92332,-4.16467 -2,-5.58817 -2.15039,-2.84307 -2.6364,-7.41183 -0.78845,-7.41183 1.19779,0 6.83086,12.02383 6.83086,14.58051 0,0.78072 -0.9,1.41949 -2,1.41949 -1.17262,0 -2.01754,-1.24107 -2.04241,-3 z m 3.3982,-8.95567 c -1.84568,-3.64229 -3.35579,-7.54229 -3.35579,-8.66667 0,-3.40391 2.23861,-2.29668 4.01185,1.98428 0.91778,2.21574 2.17252,4.33999 2.78829,4.72056 1.53652,0.94962 -2.11373,-9.12872 -4.7803,-13.19842 -1.40814,-2.1491 -1.68058,-3.60304 -0.7795,-4.15994 1.69496,-1.04754 6.23241,6.07601 8.39626,13.18163 1.24472,4.08743 1.2407,5.35735 -0.0183,5.77702 -0.98964,0.32988 -1.30089,1.78434 -0.80481,3.76089 1.41503,5.63793 -1.93576,3.55087 -5.45771,-3.39935 z m 7.33259,-11.97853 c -0.95615,-2.89714 -3.45218,-6.9094 -5.54675,-8.91612 -4.14684,-3.97293 -4.79362,-5.81634 -2.04072,-5.81634 2.74394,0 7.11202,5.35915 10.14262,12.44387 3.26137,7.6242 3.25263,7.55613 0.96988,7.55613 -0.98262,0 -2.56889,-2.37039 -3.52503,-5.26754 z m 4.81167,-6.35778 c -0.65199,-4.75677 -2.03486,-7.49267 -5.66764,-11.21297 -6.28343,-6.43482 -4.76341,-9.90001 1.62611,-3.70704 4.36527,4.23098 6.09295,7.92905 7.88544,16.87866 0.65864,3.28845 0.40382,4.33333 -1.05679,4.33333 -1.28364,0 -2.21195,-2.09567 -2.78712,-6.29198 z M 206.48622,1027.3882 c 3.39924,-1.8031 9.71461,-4.4873 14.03416,-5.9648 4.31954,-1.4775 8.08633,-2.919 8.37064,-3.2033 1.27401,-1.274 -2.39932,-7.5745 -4.52469,-7.7608 -8.37691,-0.7341 -16.37482,2.9419 -23.45729,10.7813 -8.36934,9.2639 -5.7469,12.1545 5.57718,6.1476 z m -3.99154,-15.8828 c 5.15826,-2.472 10.60715,-4.8159 12.10865,-5.2085 2.00896,-0.5254 2.73,-1.8034 2.73,-4.8387 0,-4.8816 -0.39575,-4.9371 -9.88584,-1.3864 -8.47043,3.1692 -15.44749,9.0994 -15.44749,13.1298 0,1.5391 0.2511,2.7984 0.55801,2.7984 0.30691,0 4.77841,-2.0226 9.93667,-4.4946 z M 598.53095,904.0685 c 28.32675,-14.2993 60.80677,-43.093 78.28703,-69.40183 26.33306,-39.63284 42.51999,-83.92452 51.72684,-141.53822 7.76099,-48.56587 10.43793,-96.89064 12.80332,-231.12845 0.73655,-41.8 1.71513,-79.98399 2.17462,-84.8533 0.74744,-7.92074 0.57079,-8.9334 -1.677,-9.61366 -4.77814,-1.44602 -46.6274,-4.81369 -76.51244,-6.15707 -38.32206,-1.72263 -112.39042,-1.74252 -149.33333,-0.0401 -29.18256,1.3448 -71.95044,4.80892 -76.52454,6.19836 -2.32908,0.70748 -2.45877,1.76175 -1.67498,13.61632 0.46726,7.0672 1.45143,47.94946 2.18703,90.84946 2.04121,119.04195 4.48488,165.04225 11.26206,212 7.06542,48.95491 17.26153,83.71515 35.0037,119.33333 19.28887,38.72327 42.00909,65.63884 73.08006,86.5745 8.6854,5.85223 29.54359,17.99794 31.03802,18.07342 0.20425,0.0103 3.87607,-1.75042 8.15961,-3.91275 z M 561.33332,695.33333 v -138 h -42 -42 v -29.981 -29.98101 l 41.66667,-0.35232 41.66666,-0.35233 0.35837,-30.33334 L 561.38339,436 h 29.28326 29.28327 l 0.35837,30.33333 0.35836,30.33334 26.66667,0.22413 c 14.66666,0.12327 33.41666,0.27327 41.66666,0.33333 l 15,0.1092 v 30 30 h -42 -41.99999 v 138 138 H 590.66665 561.33332 Z M 614.33952,689 614.67905,550.66667 h 41.9938 41.9938 v -24 -24 h -42 -42 V 472 441.33333 h -24 -24 V 472 502.66667 h -42 -41.99999 v 24 24 h 41.99999 42 V 689.3641 828.06153 l 23.66667,-0.3641 23.66667,-0.3641 z m 151.60369,-21.33333 c -0.51443,-2.38334 -2.0621,-6.55943 -3.43928,-9.28022 -1.37717,-2.72078 -2.48399,-6.02078 -2.45959,-7.33333 0.038,-2.04533 0.4192,-1.93651 2.66667,0.76126 3.83876,4.6079 3.44478,0.38672 -0.73349,-7.8587 -3.62252,-7.1487 -2.38282,-8.72053 2.93653,-3.72326 5.5565,5.22006 3.68952,-0.97052 -2.22918,-7.39155 -2.92331,-3.17141 -4.91705,-6.16427 -4.43053,-6.65078 1.15784,-1.15785 -6.23426,-8.85676 -8.50381,-8.85676 -0.9628,0 -1.753,0.75 -1.75599,1.66667 -0.003,0.91667 -0.89588,11.26667 -1.9842,23 -2.59566,27.98415 -2.7443,26 1.9478,26 3.09624,0 3.77817,-0.46902 3.13163,-2.15387 -0.67306,-1.75397 -0.23208,-1.9735 2.37518,-1.18239 1.76094,0.53432 5.0017,2.37538 7.2017,4.09126 5.4038,4.21467 6.37781,4.01377 5.27656,-1.08833 z M 432.01105,595.93058 c -0.68139,-12.06182 -1.88566,-53.13058 -2.67616,-91.26391 -0.7905,-38.13334 -2.00347,-81.03334 -2.69547,-95.33334 -0.69201,-14.3 -1.26898,-28.81441 -1.28215,-32.25426 l -0.024,-6.25426 -3.44896,1.78934 c -1.89694,0.98415 -4.35099,3.07717 -5.45346,4.65116 -1.58648,2.26502 -2.39652,2.53646 -3.88437,1.30166 -1.22641,-1.01783 -1.87987,-1.0701 -1.87987,-0.15036 0,0.77538 -0.71071,3.09885 -1.57935,5.16326 l -1.57934,3.75346 L 406.6926,382 l -0.81532,-5.33333 -2.60533,4.41259 c -1.43294,2.42693 -3.88948,6.59116 -5.45899,9.25385 l -2.85364,4.84124 -4.64437,-9.21252 -4.64437,-9.21253 -6.86968,10.62535 -6.86968,10.62535 0.36769,-13.00299 c 0.20224,-7.15164 0.22597,-13.00164 0.0528,-13 -0.17322,0.002 -2.38069,4.05299 -4.90549,9.00299 l -4.59054,9 -1.5794,-4.39393 c -1.83042,-5.09227 -3.67158,-4.95629 -6.8622,0.5068 C 352.53999,389.32176 340.8465,452 342.12193,452 c 0.19976,0 2.93845,-4.76793 6.08599,-10.5954 5.83419,-10.80165 7.73125,-11.57056 7.77165,-3.14996 0.0409,8.5222 2.40726,5.37226 5.97572,-7.95447 2.00783,-7.49843 4.13362,-14.50947 4.72398,-15.5801 1.22612,-2.22361 2.47079,5.16715 3.02237,17.9466 l 0.34528,8 1.85591,-6.54947 1.85591,-6.54946 2.4873,3.07168 c 1.36801,1.68942 2.7005,2.83668 2.96109,2.54946 0.26059,-0.28722 2.29404,-4.12221 4.51878,-8.52221 l 4.04499,-8 0.95695,7.02992 c 0.52633,3.86646 1.38982,7.29745 1.91887,7.62442 0.52904,0.32697 2.88724,-2.0865 5.24043,-5.36326 C 398.24035,422.68099 400.405,420 400.6975,420 c 0.53179,0 -10.97631,28.05658 -11.87791,28.95818 -0.26252,0.26252 -1.16951,-2.2717 -2.01554,-5.6316 -0.84603,-3.35989 -2.01886,-5.81186 -2.60627,-5.44882 -0.58742,0.36304 -2.1836,3.13397 -3.54707,6.15761 l -2.47904,5.49753 -2.20616,-4.26624 -2.20616,-4.26625 -2.52969,8.83313 c -1.39134,4.85822 -2.93952,8.83313 -3.44041,8.83313 -0.50089,0 -1.33931,-1.95 -1.86316,-4.33334 -0.81911,-3.72665 -1.08808,-3.95999 -1.92119,-1.66666 -0.5328,1.46666 -1.40528,5.62765 -1.93884,9.24664 l -0.9701,6.57998 -3.99138,-6.91331 c -2.19525,-3.80232 -4.11284,-6.91331 -4.2613,-6.91331 -0.68025,0 3.92623,34.57321 4.70918,35.34401 0.4872,0.47962 2.18858,0.17482 3.78086,-0.67735 1.59229,-0.85216 3.27665,-1.1678 3.74303,-0.70142 0.46638,0.46638 1.16499,7.86499 1.55247,16.44136 l 0.7045,15.5934 L 370.31086,516 373.2884,511.33333 373.40969,520 c 0.0667,4.76667 0.5358,11.36667 1.04242,14.66667 l 0.92113,6 3.31337,-8.66667 3.31338,-8.66667 0.67329,9.33334 0.67328,9.33333 2.54109,-5.33333 2.54108,-5.33334 1.45229,10.66667 1.4523,10.66667 3.70782,-6 3.70781,-6 L 398.34856,551 c -0.22021,5.68333 -0.1274,10.33333 0.20625,10.33333 0.33366,0 2.04415,-1.35 3.8011,-3 l 3.19445,-3 L 404.77517,559 c -0.42635,2.01667 -1.09059,5.31667 -1.4761,7.33333 L 402.59815,570 l 2.73684,-3.33333 2.73684,-3.33334 -0.36925,11.66978 c -0.35509,11.22221 0.51262,14.62026 2.29741,8.99689 1.36931,-4.31432 3.03112,-3.07815 4.03294,3 1.49641,9.07887 3.20264,10.61293 3.33669,3 0.0646,-3.66667 0.61381,-9.06667 1.22054,-12 1.10035,-5.3197 1.10356,-5.31411 1.2565,2.18773 0.0884,4.33808 1.2695,9.98087 2.79071,13.33333 1.45057,3.19675 2.65057,8.47944 2.66667,11.73931 0.0227,4.58565 0.83712,6.77024 3.59875,9.65276 1.9632,2.04915 3.74444,3.55074 3.95831,3.33687 0.21387,-0.21386 -0.16865,-10.25761 -0.85005,-22.31942 z M 302.532,489.33333 c 0.11252,-0.36666 1.28774,1.73334 2.61159,4.66667 l 2.40699,5.33333 L 309.26969,494 c 2.28744,-7.09651 3.26692,-7.93957 6.02269,-5.1838 2.66517,2.66517 8.53905,3.65022 10.76254,1.80488 1.02319,-0.84917 2.08312,-0.18782 3.27841,2.04559 1.14558,2.14054 2.276,2.8792 3.21651,2.10178 2.31026,-1.90966 8.61643,-0.0619 9.52154,2.7898 0.55088,1.73569 1.78146,2.45357 3.7098,2.1642 2.27853,-0.34193 3.79347,1.11415 7.20213,6.92227 5.24874,8.94351 5.40282,7.859 0.83298,-5.86299 -1.93437,-5.80839 -4.81047,-17.14172 -6.39133,-25.18519 l -2.87429,-14.62449 -7.71293,8.51398 c -5.92745,6.54306 -7.53219,7.74233 -6.93218,5.18064 0.42942,-1.83334 3.08985,-15.54448 5.91207,-30.4692 2.82223,-14.92473 5.72852,-27.52473 6.45842,-28 0.72991,-0.47528 1.73309,-5.06414 2.22931,-10.19747 0.49621,-5.13333 1.25227,-11.28333 1.68014,-13.66667 C 346.61336,389.95 346.41643,388 345.74787,388 c -0.66856,0 -4.71296,3.11718 -8.98755,6.92706 -5.06241,4.51205 -7.50044,6.0228 -6.99311,4.33333 0.42838,-1.42655 1.49577,-5.59372 2.37198,-9.26039 1.90707,-7.98042 7.16369,-18.80502 15.28454,-31.47437 3.64933,-5.69332 5.05379,-8.81682 3.60873,-8.02573 -2.47613,1.35554 -27.93837,19.16585 -30.524,21.35091 -2.53976,2.1463 -10.37424,3.8001 -13.17602,2.78137 -1.48618,-0.54038 -3.51653,-0.30471 -4.58839,0.5326 -1.47436,1.15173 -1.68781,1.11111 -0.91549,-0.1742 1.72284,-2.8672 -3.04514,-3.49817 -6.18858,-0.81895 -2.54861,2.17221 -2.69011,2.18897 -1.09368,0.12948 1.00853,-1.30105 1.59819,-2.50617 1.31036,-2.67803 -0.28783,-0.17186 -4.72333,-1.73759 -9.85667,-3.4794 -12.9466,-4.39295 -30.31669,-13.53084 -40.96182,-21.54879 -4.929,-3.71255 -18.729,-17.06121 -30.66666,-29.66371 -34.94974,-36.89614 -51.22542,-51.57636 -57.19923,-51.59214 -1.70168,-0.004 -2.3582,1.99501 -3.08849,9.40633 -0.88122,8.94295 -0.72793,9.72376 3.07575,15.66667 6.69389,10.45862 7.225,12.9421 4.81923,22.53483 -1.171,4.66925 -3.59527,10.65008 -5.38727,13.29073 -2.88134,4.2459 -3.25817,6.24466 -3.25817,17.2818 0,9.08909 0.4529,12.48391 1.66667,12.49279 5.31171,0.0389 22.06019,11.18189 22.5428,14.9981 0.11521,0.91101 0.62095,-1.34362 1.12386,-5.01029 l 0.91439,-6.66667 0.2111,7.33334 c 0.20871,7.25024 1.18915,9.22361 8.77741,17.66666 1.15341,1.28334 2.20305,3.08334 2.33255,4 0.1295,0.91667 0.62355,-2.53333 1.09789,-7.66666 l 0.86243,-9.33334 0.23545,9.74291 c 0.1295,5.3586 0.97636,12.5586 1.88192,16 l 1.64647,6.25709 L 197.45726,398 c 0.72058,-4.6247 0.88741,-4.09323 1.25564,4 l 0.42466,9.33333 L 200,402 l 0.86243,-9.33333 0.23545,11.08765 c 0.24696,11.62987 2.1846,18.1915 4.35835,14.75915 0.86736,-1.36958 1.17487,-1.05089 1.19001,1.23325 0.0179,2.70362 0.53405,2.99911 4.2229,2.41774 2.31136,-0.36427 4.70218,-1.4503 5.31292,-2.41339 0.84472,-1.33207 1.11532,-1.35226 1.13085,-0.0844 0.0112,0.91666 0.86341,1.66666 1.89372,1.66666 1.03032,0 3.49907,2.77417 5.48612,6.16481 2.69316,4.59553 3.90814,5.6986 4.77295,4.33333 0.83877,-1.32414 1.16736,-0.90812 1.18625,1.50186 0.0144,1.83334 1.82099,6.03334 4.01471,9.33334 2.19372,3.3 3.99163,5.4 3.99534,4.66666 0.004,-0.73333 1.31548,1.31063 2.91502,4.54214 2.4655,4.98098 3.06004,5.48845 3.90524,3.33333 0.86145,-2.19658 1.01039,-2.08903 1.09567,0.7912 0.11283,3.81045 4.70976,12 6.7358,12 0.74411,0 1.36962,0.75 1.39002,1.66667 0.0204,0.91666 1.82041,4.02355 4,6.90418 l 3.96291,5.23752 0.0204,-3.90418 c 0.0148,-2.83829 0.34856,-3.38571 1.22234,-2.00509 0.89901,1.42049 1.31839,0.91645 1.66406,-2 0.36305,-3.06313 1.03005,-1.7551 3.11099,6.1009 l 2.64886,10 0.66666,-8 0.66667,-8 2.5522,11.00335 c 1.40371,6.05185 2.86486,10.6907 3.24699,10.30857 0.38213,-0.38213 1.06899,-3.23364 1.52635,-6.33668 l 0.83157,-5.64191 1.92145,8 1.92144,8 0.66667,-5.90565 0.66666,-5.90565 7.33334,15.90565 7.33333,15.90565 0.83037,-14.66666 C 301.95373,496.6 302.41947,489.7 302.532,489.33333 Z m -41.09341,-19.44444 c 0.064,-1.55326 0.37992,-1.8692 0.80556,-0.80556 0.38516,0.9625 0.33779,2.1125 -0.10527,2.55556 -0.44305,0.44305 -0.75818,-0.34445 -0.70029,-1.75 z m 27.61051,-3.22222 c -1.0938,-2.56667 -2.46496,-5.86667 -3.04702,-7.33334 -0.98365,-2.47862 -1.15671,-2.4081 -2.45424,1 C 282.78006,462.35 281.74455,464 281.2467,464 c -0.49785,0 -1.81141,-3.15 -2.91904,-7 -1.99695,-6.94124 -2.59488,-6.82616 -4.28119,0.824 -1.09758,4.97927 -2.23818,3.65961 -4.83579,-5.59495 -1.77495,-6.32363 -2.28108,-7.07097 -3.08985,-4.56238 -0.53196,1.65 -1.48366,3 -2.11489,3 -1.55397,0 -6.9047,-14.53859 -6.33226,-17.20553 0.2512,-1.17029 1.5256,1.02219 2.83201,4.87219 2.38215,7.02025 4.82764,9.2552 4.82764,4.41203 0,-5.72138 2.39291,-3.51091 4.65791,4.30278 l 2.40167,8.28519 1.21534,-5.66666 C 274.27669,446.55 275.31031,444 275.90518,444 c 0.59487,0 1.85206,2.85 2.79376,6.33333 2.37795,8.79607 2.79173,9.22549 4.67295,4.84965 l 1.655,-3.84965 2.15322,4.95718 c 1.18427,2.72644 2.15322,5.57644 2.15322,6.33333 0,0.75689 0.6,1.37616 1.33333,1.37616 0.73333,0 1.33333,-1.5 1.33333,-3.33333 0,-4.36262 2.10281,-4.24696 4.45644,0.24511 1.86544,3.56032 1.87973,3.56334 2.82138,0.59647 0.75928,-2.39229 1.31978,-2.67214 2.83431,-1.41519 1.35418,1.12387 1.88787,1.14372 1.88787,0.0702 0,-2.75228 2.55955,-1.53707 4.5707,2.17007 l 1.9892,3.66667 0.0534,-3.66667 c 0.0597,-4.10206 2.32299,-4.91754 3.70051,-1.33333 0.75967,1.97661 1.01369,1.83885 1.66159,-0.90115 1.06239,-4.49284 3.27229,-4.81057 5.12819,-0.73731 2.09415,4.59615 1.90675,5.87092 -0.41279,2.80794 -1.80195,-2.37951 -1.93243,-2.33239 -2.7688,1 -0.89952,3.58396 -3.16942,4.81927 -3.36361,1.83052 -0.0596,-0.91667 -0.88576,0.0962 -1.836,2.25094 l -1.7277,3.9176 -2.47906,-4.58427 -2.47906,-4.58427 -0.44017,3.66667 c -0.48127,4.00897 -2.90375,5.09572 -2.97212,1.33333 -0.0397,-2.18318 -0.16034,-2.17778 -1.87504,0.0839 -1.71991,2.26859 -1.98181,2.16474 -4.25799,-1.68853 l -2.42536,-4.10581 -1.51401,5.02187 -1.51401,5.02186 z m -36.94384,-2.11111 c 0.064,-1.55326 0.37992,-1.8692 0.80555,-0.80556 0.38516,0.9625 0.3378,2.1125 -0.10526,2.55556 -0.44306,0.44305 -0.75819,-0.34445 -0.70029,-1.75 z m 8.10526,-1.88889 c 0,-1.83334 0.30263,-2.58334 0.67251,-1.66667 0.36989,0.91667 0.36989,2.41667 0,3.33333 -0.36988,0.91667 -0.67251,0.16667 -0.67251,-1.66666 z m -9.4386,-3.44445 c 0.064,-1.55326 0.37992,-1.8692 0.80556,-0.80555 0.38516,0.9625 0.33779,2.1125 -0.10526,2.55555 -0.44306,0.44306 -0.75819,-0.34444 -0.7003,-1.75 z m -1.12926,-9.88889 c 0,-2.56666 0.2744,-3.61666 0.60977,-2.33333 0.33537,1.28333 0.33537,3.38333 0,4.66667 -0.33537,1.28333 -0.60977,0.23333 -0.60977,-2.33334 z m -12.0494,-8.66666 c 0.0272,-2.2 0.326,-2.93858 0.66406,-1.64129 0.33805,1.29729 0.31582,3.09729 -0.0494,4 -0.36523,0.90271 -0.64182,-0.15871 -0.61465,-2.35871 z m 5.17866,1.22222 c 0.064,-1.55326 0.37992,-1.8692 0.80556,-0.80556 0.38516,0.9625 0.33779,2.1125 -0.10526,2.55556 -0.44306,0.44305 -0.75819,-0.34445 -0.7003,-1.75 z m -33.33333,-25.33333 c 0.064,-1.55326 0.37992,-1.8692 0.80556,-0.80556 0.38516,0.9625 0.33779,2.1125 -0.10527,2.55556 -0.44305,0.44305 -0.75818,-0.34445 -0.70029,-1.75 z m -5.22807,-5.88889 c 0,-1.83334 0.30263,-2.58334 0.67252,-1.66667 0.36988,0.91667 0.36988,2.41667 0,3.33333 -0.36989,0.91667 -0.67252,0.16667 -0.67252,-1.66666 z m 9.33333,0 c 0,-1.83334 0.30264,-2.58334 0.67252,-1.66667 0.36988,0.91667 0.36988,2.41667 0,3.33333 -0.36988,0.91667 -0.67252,0.16667 -0.67252,-1.66666 z m -5.43859,-0.77778 c 0.064,-1.55326 0.37992,-1.8692 0.80555,-0.80556 0.38516,0.9625 0.3378,2.1125 -0.10526,2.55556 -0.44305,0.44305 -0.75819,-0.34445 -0.70029,-1.75 z M 202.976,398.66667 c 0,-2.56667 0.27439,-3.61667 0.60976,-2.33334 0.33537,1.28334 0.33537,3.38334 0,4.66667 -0.33537,1.28333 -0.60976,0.23333 -0.60976,-2.33333 z m 5.12926,1.88889 c 0.064,-1.55326 0.37992,-1.8692 0.80555,-0.80556 0.38516,0.9625 0.3378,2.1125 -0.10526,2.55556 -0.44305,0.44305 -0.75819,-0.34445 -0.70029,-1.75 z M 314.87719,392 c 0,-1.83333 0.30263,-2.58333 0.67251,-1.66667 0.36988,0.91667 0.36988,2.41667 0,3.33334 -0.36988,0.91666 -0.67251,0.16666 -0.67251,-1.66667 z m 9.22807,-2.11111 c 0.064,-1.55326 0.37992,-1.8692 0.80555,-0.80556 0.38516,0.9625 0.33779,2.1125 -0.10526,2.55556 -0.44306,0.44305 -0.75819,-0.34445 -0.70029,-1.75 z M 194.87719,388 c 0,-1.83333 0.30263,-2.58333 0.67251,-1.66667 0.36989,0.91667 0.36989,2.41667 0,3.33334 -0.36988,0.91666 -0.67251,0.16666 -0.67251,-1.66667 z m 121.1228,-2.58798 c 0,-0.69005 0.59313,-1.62121 1.31806,-2.06925 0.75582,-0.46712 0.97935,0.0681 0.52402,1.25465 -0.88639,2.30989 -1.84208,2.73251 -1.84208,0.8146 z M 321.33333,384 c 0.78493,-1.46667 1.72715,-2.66667 2.09382,-2.66667 0.36667,0 0.0245,1.2 -0.76049,2.66667 -0.78494,1.46667 -1.72716,2.66667 -2.09382,2.66667 -0.36667,0 -0.0245,-1.2 0.76049,-2.66667 z m -9.33334,0.36993 c 0,-0.77431 1.23561,-2.82431 2.7458,-4.55555 l 2.7458,-3.14771 -2.34225,4 c -3.08274,5.26457 -3.14935,5.34289 -3.14935,3.70326 z m 8.66667,-5.70326 C 321.99397,377.2 323.37996,376 323.74663,376 c 0.36666,0 -0.41932,1.2 -1.74664,2.66667 -1.32731,1.46666 -2.7133,2.66666 -3.07996,2.66666 -0.36667,0 0.41931,-1.2 1.74663,-2.66666 z m 4.66667,-1.33334 c 0.78493,-1.46666 1.72715,-2.66666 2.09382,-2.66666 0.36667,0 0.0245,1.2 -0.76049,2.66666 C 325.88172,378.8 324.9395,380 324.57284,380 c -0.36667,0 -0.0245,-1.2 0.76049,-2.66667 z M 330.77371,376 c 1.94375,-4.08138 2.55962,-4.83779 2.55962,-3.14373 0,0.7154 -0.9331,2.4654 -2.07356,3.88889 -1.95517,2.44041 -1.98292,2.39786 -0.48606,-0.74516 z m -45.44038,-1.83674 c 0,-0.27687 1.05,-1.32687 2.33333,-2.33333 2.11474,-1.6585 2.1619,-1.61134 0.50341,0.5034 -1.74183,2.221 -2.83674,2.92731 -2.83674,1.82993 z M 182.976,369.33333 c 0,-2.56666 0.27439,-3.61666 0.60976,-2.33333 0.33537,1.28333 0.33537,3.38333 0,4.66667 C 183.25039,372.95 182.976,371.9 182.976,369.33333 Z m -34.976,-28 v -66.66666 l -3.66667,0.0416 c -2.01667,0.0229 -6.06667,1.51981 -9,3.3265 -2.93333,1.80669 -7.05234,3.28797 -9.15335,3.29172 l -3.82001,0.007 2.31154,-3.66666 c 1.27134,-2.01667 3.04989,-4.26667 3.95232,-5 0.90244,-0.73334 1.63835,-1.87643 1.63536,-2.54022 -0.01,-2.16419 11.31301,-12.56398 14.56862,-13.38109 L 148,255.94919 v -61.9556 -61.9556 l 41.66666,-0.35233 41.66667,-0.35233 L 231.69674,107 232.06015,82.666667 H 190.03007 148 v -30 -30 H 124 99.999998 v 30 30 H 58.666665 17.333333 V 107.33333 132 h 41.333332 41.333333 v 62.64178 62.64178 l 8.933972,12.35822 c 4.91368,6.79702 10.91368,14.60995 13.33333,17.36206 2.41965,2.75211 4.39936,5.83213 4.39936,6.84449 0,2.01803 -3.96069,3.43846 -9.66666,3.4668 -4.58728,0.0228 -4.62466,1.33824 -0.15493,5.45245 6.27499,5.77589 13.82159,16.07196 13.82159,18.85726 0,2.5036 -0.54573,2.64631 -6.89729,1.80375 -3.79352,-0.50323 -8.06213,-1.53836 -9.48581,-2.30029 -2.04746,-1.09577 -1.75805,-0.17402 1.3846,4.40985 5.08633,7.41893 10.9985,19.11096 10.9985,21.75086 0,3.94417 -9.34024,1.64634 -12.89098,-3.17137 -0.85671,-1.1624 -1.86479,-1.80631 -2.24019,-1.43091 -0.37539,0.37539 1.37555,3.94664 3.89099,7.93612 2.51543,3.98947 4.57352,8.90017 4.57352,10.91267 0,3.43252 -0.23223,3.57814 -3.75039,2.3517 -4.16769,-1.45286 -10.38634,-6.79164 -13.84634,-11.88722 -2.16191,-3.18387 -2.26654,-2.0031 -2.33334,26.33333 L 99.999998,408 H 124 148 Z M 398.7924,374 l 1.78122,-5.33333 0.75314,4.66666 0.75314,4.66667 2.09976,-3.8622 2.09976,-3.86221 0.96902,3.86089 0.96902,3.86088 1.72824,-3.22924 1.72823,-3.22925 0.97803,3.08148 c 0.96506,3.04065 1.01394,3.02473 3.68989,-1.20165 2.03944,-3.22107 3.00079,-3.84533 3.87701,-2.51757 1.75987,2.66674 5.11446,-2.40522 5.11446,-7.73279 0,-2.9544 0.73832,-4.54862 2.33334,-5.03826 7.26644,-2.23065 45.28997,-5.81374 87.33333,-8.22971 13.98432,-0.80359 14.33333,-0.90106 14.33333,-4.00279 0,-3.73799 8.16806,-17.01987 13.61507,-22.13912 l 3.80375,-3.57488 -8.17161,-11.42416 c -4.49439,-6.2833 -8.64561,-11.13123 -9.22493,-10.77319 -0.57932,0.35804 -1.44852,2.75761 -1.93155,5.33238 -0.48302,2.57476 -1.18061,4.68139 -1.55019,4.68139 -0.36957,0 -5.59239,-3.97517 -11.60625,-8.83371 l -10.93429,-8.83372 -0.88064,8.73882 c -0.48435,4.80636 -1.44254,9.74288 -2.12931,10.97007 -1.11239,1.98773 -1.52558,1.8669 -3.78602,-1.10713 -1.39555,-1.8361 -3.64147,-5.34036 -4.99093,-7.78724 l -2.45358,-4.44887 -1.69759,3.98422 c -0.93367,2.19133 -2.86339,5.02209 -4.28827,6.29058 -2.35121,2.09317 -2.86103,2.117 -5.5155,0.25773 -4.00273,-2.80362 -3.75741,-5.41631 0.26132,-2.78313 2.92684,1.91774 3.36089,1.89455 5.33333,-0.28498 1.18096,-1.30494 2.14719,-3.3263 2.14719,-4.49191 0,-2.90328 1.40924,-6.3374 2.60064,-6.3374 0.54011,0 3.02592,2.99884 5.52402,6.66409 2.4981,3.66525 4.99201,6.66525 5.54201,6.66667 1.1165,0.003 1.52032,-5.66682 1.03818,-14.57641 l -0.31994,-5.91232 3.23706,2.121 c 1.78038,1.16655 6.79378,4.61575 11.14088,7.66488 l 7.90382,5.54388 0.39728,-8.09858 c 0.37272,-7.59781 0.55993,-8.01154 3.02756,-6.6909 1.44665,0.77422 3.16378,1.07795 3.81585,0.67495 0.65207,-0.403 4.82819,3.31925 9.28027,8.27167 l 8.09469,9.00441 0.0255,-5.55762 c 0.0393,-8.57059 0.83753,-9.73908 5.7002,-8.34448 2.28178,0.6544 4.41132,0.92719 4.73232,0.60619 0.321,-0.321 -1.01061,-3.304 -2.95912,-6.6289 l -3.54276,-6.04526 3.33535,1.2681 c 1.83444,0.69745 5.81393,2.53257 8.8433,4.07805 3.02938,1.54547 5.81527,2.50264 6.19088,2.12703 0.3756,-0.3756 -0.6234,-2.51746 -2.22,-4.75968 -3.50981,-4.92906 -2.95432,-4.97037 10.22787,-0.76045 5.71127,1.82397 10.88417,3.32397 11.49534,3.33333 1.14144,0.0175 -0.48286,-2.32212 -8.23412,-11.86025 -4.95832,-6.10134 -5.23963,-6.09398 8.31162,-0.21738 3.58713,1.55558 6.74553,2.60485 7.01868,2.33171 0.27314,-0.27315 -0.60168,-1.93822 -1.94405,-3.70018 -1.34237,-1.76195 -4.17728,-5.52605 -6.29981,-8.36466 l -3.85914,-5.16111 8.41606,4.24841 c 4.62883,2.33663 8.63754,4.02693 8.90824,3.75623 0.2707,-0.2707 -3.12438,-3.67561 -7.54463,-7.56647 -4.42025,-3.89087 -7.70542,-7.4057 -7.30037,-7.81075 0.40505,-0.40504 -4.67161,-3.85044 -11.28147,-7.65644 -14.60256,-8.40826 -14.96858,-8.7397 -7.89674,-7.15077 3.08722,0.69366 5.87579,0.99852 6.19684,0.67747 0.32104,-0.32104 -0.65815,-3.01795 -2.17597,-5.99313 -3.53294,-6.92513 -3.48643,-7.42316 0.87889,-9.41213 l 3.63858,-1.65785 -7.19022,-6.85899 -7.19023,-6.85899 -2.32171,5.46669 c -2.23092,5.25293 -2.61343,5.50315 -9.78168,6.39876 -6.156,0.76915 -7.45998,1.38142 -7.45998,3.50279 0,1.88299 -0.93224,2.57073 -3.48467,2.57073 -3.11677,0 -3.42241,0.42413 -2.89504,4.01736 0.51498,3.50877 0.25562,3.91136 -2.04863,3.18002 -2.44193,-0.77504 -2.40074,-0.50379 0.5536,3.6452 2.73138,3.83587 3.45409,7.28068 1.87189,8.9224 -0.2288,0.23741 -2.27176,-0.528 -4.53991,-1.70091 l -4.12391,-2.13255 v 5.36757 c 0,5.89373 -0.43442,6.16804 -5.33333,3.36757 -5.82117,-3.32768 -6.61777,-2.64794 -5.72553,4.88562 l 0.8155,6.88562 -7.37395,-4.21895 c -4.05568,-2.32043 -7.69973,-4.21895 -8.09789,-4.21895 -0.39817,0 -1.14563,4.5 -1.66102,10 -0.51539,5.5 -1.33953,10 -1.83141,10 -0.49188,0 -3.15125,-2.7 -5.90971,-6 -5.12359,-6.12946 -5.29027,-7.02556 -0.86642,-4.65798 2.24052,1.19909 2.74528,0.49488 4.73936,-6.61196 l 2.23177,-7.95398 5.11987,2.61196 c 2.81592,1.43657 5.707,2.61196 6.42462,2.61196 0.71761,0 1.712,-2.71571 2.20974,-6.03491 l 0.90499,-6.03491 5.97567,3.50198 c 5.23068,3.06538 5.88493,3.1944 5.2478,1.03491 -0.40033,-1.35689 -1.1385,-4.78026 -1.64036,-7.6075 -0.86792,-4.88934 -0.77799,-5.06844 1.84125,-3.66667 4.19679,2.24606 4.77812,1.7928 2.385,-1.85957 -2.16931,-3.31078 -2.15585,-3.33333 1.9893,-3.33333 2.78388,0 3.96485,-0.55491 3.54704,-1.66667 -2.91425,-7.75461 -2.85071,-7.99163 1.87499,-6.99462 3.65218,0.77052 4.16233,0.62505 2.79939,-0.79824 -2.80034,-2.92435 -1.90165,-3.87381 3.66667,-3.87381 6.15212,0 6.44934,-0.63978 2.33333,-5.02258 l -3,-3.19445 3.33333,0.69152 c 1.83334,0.38034 5.13334,1.02376 7.33334,1.42983 l 4,0.7383 -3.71164,-2.94855 -3.71164,-2.94855 5.04497,-1.4541 5.04497,-1.4541 -4.33333,-2.28623 c -3.09506,-1.63293 -4.33333,-3.22356 -4.33333,-5.56641 0,-2.34974 -1.51282,-4.28131 -5.33334,-6.80961 -5.53497,-3.66287 -6.77825,-5.84173 -3.33333,-5.84173 1.1,0 2,-0.56598 2,-1.25773 0,-2.00004 -5.31817,-5.19305 -12.60661,-7.56898 -3.6997,-1.20604 -7.39464,-2.71876 -8.21099,-3.3616 -0.81635,-0.64284 -1.90438,-6.34634 -2.41784,-12.67445 -1.50582,-18.55844 -5.73567,-25.22464 -17.59444,-27.72865 -4.75574,-1.00419 -18.23888,1.8093 -27.31131,5.69897 l -6.14119,2.63295 -16.52548,-3.15286 c -20.52739,-3.91637 -35.77026,-4.168 -43.19214,-0.71302 -6.09482,2.83721 -24.84298,16.83794 -23.86159,17.81933 0.35761,0.35761 -2.82723,1.07833 -7.07743,1.6016 -13.93758,1.71595 -48.7704,8.83044 -52.38453,10.69938 -5.14962,2.66297 -7.33186,5.8407 -6.89182,10.03575 0.27316,2.60423 -0.49524,4.31583 -2.59908,5.78942 -2.58689,1.81193 -2.78392,2.53762 -1.47125,5.41863 1.07388,2.35691 1.11536,4.47484 0.14232,7.26611 -1.69495,4.86215 0.70193,10.1509 7.00354,15.45335 3.60039,3.02953 5.16061,3.49322 9.71456,2.88714 2.98391,-0.39713 14.0996,-1.38383 24.70154,-2.19267 22.78631,-1.73841 26.96074,-0.7387 36.78506,8.80944 11.06976,10.75857 14.61891,24.37834 7.75887,29.77445 -1.9373,1.52388 -5.48086,2.76344 -7.89992,2.76344 -2.41273,0 -16.23625,-3 -30.71893,-6.66667 -14.48268,-3.66667 -27.87771,-6.65782 -29.76674,-6.64701 -5.63011,0.0322 -10.10126,2.99183 -10.10126,6.68639 0,3.05212 0.4405,3.27558 6,3.04375 8.09863,-0.33773 28.39288,4.27767 36.9991,8.41448 4.89101,2.351 7.24839,4.35758 7.82679,6.66211 0.45524,1.81379 0.44565,3.67985 -0.0213,4.1468 -1.1281,1.1281 7.12925,4.55841 8.6743,3.60352 0.70729,-0.43713 0.85816,5.61188 0.36598,14.67311 -0.46058,8.47927 -0.41607,15.41685 0.0989,15.41685 0.51498,0 6.03611,-1.8 12.26917,-4 6.23307,-2.2 11.66005,-4 12.05995,-4 0.3999,0 0.37242,1.77337 -0.0611,3.94082 -0.62167,3.10838 -0.37523,3.78236 1.16667,3.19068 2.33434,-0.89577 2.46232,0.0956 0.48847,3.78372 -1.12322,2.09877 -1.08834,2.50629 0.14907,1.74153 0.88849,-0.54912 2.07205,-0.25957 2.63013,0.64342 0.78935,1.2772 1.66994,1.29114 3.96512,0.0628 4.27485,-2.28783 4.34626,-1.30735 0.3568,4.89831 -2.24903,3.49839 -4.7865,5.73638 -6.9255,6.10815 -1.85676,0.32272 -4.42593,1.03581 -5.70926,1.58465 -2.06699,0.88398 -2.33333,0.12501 -2.33333,-6.64897 v -7.64687 l -4.26131,3.28622 C 388.68421,307.35645 383.13757,316 386.02749,316 c 1.25733,0 -2.37188,5.29813 -9.26962,13.53234 -6.23476,7.44279 -11.00371,14.0699 -10.59765,14.72692 0.40606,0.65702 -3.21387,7.51287 -8.0443,15.23523 -4.83043,7.72236 -8.78259,14.31635 -8.78259,14.65333 0,0.33697 1.35,-0.11207 3,-0.99787 4.96167,-2.66365 10.33333,-2.4569 10.33333,0.39774 0,4.45752 2.40851,2.56089 7.46824,-5.88102 9.14198,-15.25294 8.77931,-15.19468 8.29554,-1.33266 -0.23675,6.7837 -0.083,12.3337 0.34163,12.33333 0.42465,-3.7e-4 2.10782,-2.85067 3.74038,-6.33401 1.63255,-3.48333 4.0495,-7.76527 5.371,-9.51542 l 2.40272,-3.18209 0.74542,3.18209 c 0.40998,1.75015 1.45144,6.69623 2.31436,10.9913 1.69355,8.42939 2.68336,8.46407 5.44645,0.19079 z M 328.0373,200.76478 c -1.68157,-4.42286 -1.7334,-6.09811 -0.18864,-6.09811 1.15652,0 2.96096,8.16194 2.0306,9.18491 -0.25923,0.28504 -1.08811,-1.10402 -1.84196,-3.0868 z m 103.29602,2.57992 c -0.73333,-0.24463 -2.98333,-0.80869 -5,-1.25347 -2.4748,-0.54583 -3.66666,-1.65652 -3.66666,-3.41696 0,-2.24887 0.47126,-2.42909 3.42013,-1.30794 1.88107,0.71519 5.33107,1.25297 7.66667,1.19507 l 4.24653,-0.10526 -3.66667,-1.33918 c -7.62204,-2.78381 -2.78222,-4.8734 6.83334,-2.95029 4.91016,0.98203 5.65922,4.5 0.95816,4.5 -2.55207,0 -3.06584,0.54558 -2.51116,2.66666 0.58147,2.22357 0.0623,2.64918 -3.12483,2.56141 -2.10219,-0.0579 -4.42217,-0.30542 -5.15551,-0.55004 z m -107.66666,-1.439 c -0.55,-0.55925 -1,-2.83681 -1,-5.06126 0,-2.8918 0.4097,-3.63474 1.43757,-2.60687 0.79066,0.79066 1.24066,3.06823 1,5.06125 -0.24066,1.99303 -0.88757,3.16612 -1.43757,2.60688 z m 9.93333,-0.83903 c -0.88,-0.88 -1.6,-3.08 -1.6,-4.88889 0,-1.80889 0.35,-2.93889 0.77778,-2.51111 0.42778,0.42777 0.75706,1.27777 0.73173,1.88889 -0.0253,0.61111 0.8385,2.46111 1.91962,4.11111 2.08021,3.17479 0.8711,4.10023 -1.82913,1.4 z m 3.74743,-1.71636 c -0.96426,-1.16185 -1.22248,-2.95628 -0.62358,-4.33333 0.93642,-2.15315 1.07023,-2.12661 1.59498,0.31635 0.31504,1.46667 1.53686,3.41667 2.71516,4.33334 1.91827,1.49233 1.92358,1.66666 0.0508,1.66666 -1.15037,0 -2.83217,-0.89236 -3.73734,-1.98302 z m 6.12856,-1.45936 c -1.61965,-4.22072 0.35494,-4.60287 2.88125,-0.55762 1.3679,2.19036 1.33159,2.66667 -0.20329,2.66667 -1.02775,0 -2.23284,-0.94907 -2.67796,-2.10905 z m -26.14265,-2.55762 c 0,-1.83333 0.45,-3.33333 1,-3.33333 0.55,0 1,1.5 1,3.33333 0,1.83334 -0.45,3.33334 -1,3.33334 -0.55,0 -1,-1.5 -1,-3.33334 z m 32,1.33334 c -0.92592,-1.11566 -1.07029,-2 -0.32652,-2 0.73333,0 2.08026,0.9 2.99318,2 0.92591,1.11565 1.07029,2 0.32652,2 -0.73333,0 -2.08027,-0.9 -2.99318,-2 z m 96.25539,-2.95119 c -1.83519,-0.35062 -2.91189,-1.38243 -2.66667,-2.55552 0.4951,-2.3685 0.69925,-2.39728 9.10033,-1.28284 4.5468,0.60315 6.64428,1.49826 6.64428,2.83547 0,1.95717 -5.76784,2.39948 -13.07794,1.00289 z m 2.87137,-7.77298 c -1.12338,-2.92749 -0.44241,-3.19855 5.89875,-2.34802 3.51557,0.47154 5.64115,1.44409 5.64115,2.58108 0,2.68753 -10.50054,2.47546 -11.5399,-0.23306 z m 7.87323,-5.49221 c -0.91666,-0.36988 -1.66666,-1.52251 -1.66666,-2.5614 0,-1.3498 1.71241,-1.88889 6,-1.88889 5.11111,0 6,0.39506 6,2.66667 0,2.14125 -0.85381,2.64592 -4.33334,2.5614 -2.38333,-0.0579 -5.08333,-0.40789 -6,-0.77778 z m 7.33334,-6.05388 c -3.01773,-0.8015 -5,-2.13594 -5,-3.36594 0,-1.64858 1.07506,-1.86605 5.62671,-1.13821 5.47324,0.87521 8.20898,2.88288 6.87329,5.04408 -0.75992,1.22957 -0.86653,1.2219 -7.5,-0.53993 z m -53,-5.72974 c 0,-1.1 1.05,-1.99401 2.33333,-1.98669 1.28333,0.007 6.64327,-1.31799 11.91097,-2.94514 9.27791,-2.86586 9.55437,-3.07481 8.834,-6.67667 -0.76271,-3.81356 1.61633,-8.27696 3.71903,-6.97741 0.63902,0.39494 1.08985,2.03833 1.00184,3.65199 -0.088,1.61365 0.25569,3.90655 0.76376,5.09533 1.38195,3.23348 -2.11974,5.91545 -11.81161,9.04657 -10.36795,3.34953 -16.75132,3.65135 -16.75132,0.79202 z m 53.33333,-3.33334 c 0,-1.95555 0.88889,-2.66666 3.33333,-2.66666 2.44445,0 3.33334,0.71111 3.33334,2.66666 0,1.95556 -0.88889,2.66667 -3.33334,2.66667 -2.44444,0 -3.33333,-0.71111 -3.33333,-2.66667 z m -63.63088,-2.63029 c -4.24711,-2.58956 -6.64557,-7.65546 -5.29314,-11.17984 0.972,-2.53301 12.17691,-5.11753 17.69692,-4.08197 5.60993,1.05243 7.06756,5.08799 3.98847,11.04231 -3.71357,7.18124 -9.21303,8.59685 -16.39225,4.2195 z m 10.3852,-2.74995 c 1.65952,-0.88815 2.57901,-2.78964 2.57901,-5.33334 0,-3.21186 -0.56251,-3.95229 -3,-3.94886 -2.59915,0.004 -3.00868,0.71629 -3.06496,5.33334 -0.0722,5.92628 -0.11609,5.87661 3.48595,3.94886 z m 98.24568,-3.38207 c -0.55,-0.5585 -1,-2.70163 -1,-4.7625 0,-4.83419 -5.60109,-9.01939 -8.66624,-6.47554 -1.92237,1.59542 -3.89388,1.43878 -9.18916,-0.73012 -2.27721,-0.93272 -2.43598,-0.57407 -1.63528,3.69403 0.68806,3.66765 0.4071,4.91112 -1.25364,5.54841 -7.0982,2.72383 -15.86237,-1.66007 -15.00434,-7.50528 0.61551,-4.19303 12.02143,-9.48851 20.65845,-9.5912 5.85014,-0.0695 7.52219,0.50417 10.90312,3.74115 2.19633,2.10282 4.68612,5.49585 5.53287,7.54008 1.62115,3.91381 1.36355,10.27675 -0.34578,8.54097 z m -122.33333,-9.02026 c 0,-1.42609 21.40736,-14.21743 23.79403,-14.21743 3.65644,0 3.73535,2.21315 0.11983,3.36068 -1.51404,0.48053 -6.82408,3.22097 -11.80008,6.08985 -7.95777,4.58799 -12.11378,6.22342 -12.11378,4.7669 z M 117.33333,360.87338 c 0,-0.98631 -2.26047,-5.33631 -5.02327,-9.66666 -2.76279,-4.33036 -5.74993,-9.52339 -6.63808,-11.54005 -2.23086,-5.0655 -7.005316,-5.06259 -7.005316,0.004 0,4.03631 7.353026,15.2609 13.067426,19.94779 4.18506,3.43253 5.59924,3.74941 5.59924,1.25466 z m 542.69646,-12.96483 c 1.73442,-1.13622 1.73086,-1.43639 -0.0298,-2.50832 -1.1,-0.66971 -3.2,-2.187 -4.66666,-3.37177 -2.55293,-2.06223 -2.46762,-2.12146 2,-1.38865 l 4.66666,0.76546 -6,-3.30905 -6,-3.30905 5.33334,-0.12316 5.33333,-0.12315 -7.33333,-3.98864 -7.33334,-3.98863 5.33334,0.79864 c 4.80412,0.71939 4.27491,0.25875 -5.33334,-4.64227 -8.29098,-4.22911 -9.64895,-5.28329 -6.09722,-4.73321 5.90966,0.91526 4.97071,0.10222 -4.68349,-4.05544 -6.32909,-2.72568 -6.96465,-3.24456 -3.21928,-2.62828 2.56666,0.42233 7.06666,1.09979 10,1.50545 l 5.33333,0.73758 L 643,310.6421 c -2.38334,-1.59719 -4.33334,-3.19779 -4.33334,-3.5569 0,-0.35911 2.55,-0.26912 5.66667,0.19998 5.15844,0.77641 4.44096,0.18192 -8,-6.62866 -7.51667,-4.11486 -13.66667,-7.68976 -13.66667,-7.94422 0,-0.25446 1.35,-0.19415 3,0.134 1.65,0.32816 -3.55267,-1.82801 -11.56149,-4.79149 -8.00882,-2.96348 -15.09654,-5.38814 -15.75048,-5.38814 -0.65394,0 -1.00127,1.35 -0.77184,3 0.39281,2.82501 -0.16615,3.04543 -9.58285,3.77892 -11.8878,0.92597 -25.12447,5.40761 -29.39377,9.95207 -3.74913,3.99077 -2.80387,4.10425 4.24276,0.50932 2.97518,-1.51782 5.65581,-2.51329 5.95695,-2.21214 0.30115,0.30114 -2.457,4.51643 -6.1292,9.3673 -3.67221,4.85088 -6.67674,9.13134 -6.67674,9.51215 0,0.38081 1.8,0.33238 4,-0.10762 3.55206,-0.71042 4,-0.44306 4,2.38746 0,2.44157 -1.95465,4.46353 -8.35285,8.64048 -4.94156,3.22602 -9.37144,7.34443 -10.84696,10.0843 -2.315,4.2987 -2.33997,4.86651 -0.34765,7.90717 l 2.14645,3.2759 55.73031,0.21862 c 34.0713,0.13366 56.496,-0.28298 57.7005,-1.07205 z M 115.46876,332.84513 C 108.36293,319.80931 106.25348,317.57649 103.33333,320 c -4.457773,3.69962 -0.0922,15.48155 7.12873,19.23897 1.94586,1.01255 5.03794,3.45052 6.87127,5.41772 5.71226,6.12936 4.81429,0.44096 -1.86457,-11.81156 z M 97.410787,317.80748 c -0.04695,-7.96078 -0.23359,-23.47415 -0.414747,-34.47415 l -0.329376,-20 h -3.333333 c -2.73467,0 -3.398105,0.7184 -3.693982,4 -0.198356,2.2 -1.616046,10.96621 -3.150421,19.48045 -2.323285,12.89191 -2.542993,16.63115 -1.313939,22.36203 1.947382,9.08033 10.048856,25.37812 11.76309,23.66389 0.306944,-0.30695 0.519662,-7.07145 0.472708,-15.03222 z M 124,320.63501 c 0,-0.38408 -3.75,-5.16313 -8.33334,-10.62011 -5.73997,-6.8341 -9.26694,-9.93628 -11.33333,-9.96835 -3.92203,-0.0609 -4.08698,5.3486 -0.32424,10.63289 C 107.58216,315.69735 124,323.87351 124,320.63501 Z m -10.2664,-34.32286 c -4.41234,-4.59499 -8.44787,-9.69499 -8.96786,-11.33334 -0.52,-1.63834 -1.48618,-2.97881 -2.14708,-2.97881 -0.6609,0 -0.85915,0.89249 -0.44057,1.98332 0.41859,1.09082 0.13318,3.7845 -0.63425,5.98595 -1.21697,3.491 -0.95004,4.53183 2.08833,8.14272 4.05266,4.81632 7.27771,6.35298 13.57917,6.47016 l 4.54468,0.0845 z m 22.12284,-10.88819 c 2.82523,-1.78349 7.4633,-3.43349 10.30683,-3.66667 4.96209,-0.4069 5.18718,-0.63304 5.59566,-5.62158 1.01153,-12.35321 -9.76373,-9.05559 -20.84178,6.37834 -5.13251,7.1506 -3.39755,8.17273 4.93929,2.90991 z m 253.57539,-37.51311 c 2.62281,-2.37361 3.20104,-5.37683 1.75884,-9.13513 -0.69379,-1.80801 -4.02436,-2.10905 -23.33333,-2.10905 -14.12712,0 -22.52401,0.49706 -22.52401,1.33333 0,2.05831 -3.9906,1.57595 -4.81886,-0.58248 -0.88255,-2.29987 -4.51448,-1.22151 -4.51448,1.34041 0,1.00388 2.51672,2.46248 5.66667,3.2842 3.11667,0.81303 11.06667,3.24835 17.66666,5.41182 13.66522,4.47944 25.45588,4.65842 30.09851,0.4569 z m -45.41716,-16.24418 c 0.008,-1.28334 0.38657,-4.58334 0.84112,-7.33334 0.80811,-4.88908 0.73384,-5 -3.34801,-5 -4.85262,0 -5.17038,1.45698 -2.02968,9.30635 2.22428,5.55903 4.51105,7.08485 4.53657,3.02699 z m 20.58532,-0.46624 c 8.10333,-0.0731 16.14062,-0.52827 17.86064,-1.01148 3.04445,-0.85529 3.06082,-0.93873 0.61787,-3.14958 -1.38019,-1.24905 -4.67142,-3.17434 -7.31385,-4.27841 -5.60134,-2.34039 -26.3496,-4.38338 -26.60149,-2.61933 -0.0936,0.65544 -0.30768,2.45857 -0.47576,4.00697 -0.16807,1.5484 -0.73396,4.5484 -1.25752,6.66667 -0.76775,3.10627 -0.62412,3.52895 0.74243,2.18473 1.13084,-1.11236 6.59442,-1.71087 16.42768,-1.79957 z m 106.06667,-95.61764 c 0,-1.8755 -7.17024,-8.01819 -11.0868,-9.49797 -8.54236,-3.22752 -20.44526,-0.60855 -23.5433,5.18017 -1.2379,2.31304 -0.80749,2.6453 4.29381,3.31469 15.62605,2.05043 30.33629,2.53684 30.33629,1.00311 z"
       id="path1" />
    <path
       style="fill:#ffff00"
       d="m 410.75431,159.95309 c 1.65952,-0.88815 2.57901,-2.78964 2.57901,-5.33334 0,-3.21186 -0.56251,-3.95229 -3,-3.94886 -2.59915,0.004 -3.00868,0.71629 -3.06496,5.33334 -0.0722,5.92628 -0.11609,5.87661 3.48595,3.94886 z"
       id="path106" />
  </g>
</svg>
